<?xml version="1.0" encoding="utf-8"?>
<!-- Generator: Adobe Illustrator 22.1.0, SVG Export Plug-In . SVG Version: 6.00 Build 0)  -->
<svg version="1.1" id="Layer_1" xmlns="http://www.w3.org/2000/svg" xmlns:xlink="http://www.w3.org/1999/xlink" x="0px" y="0px"
	 viewBox="0 0 597.4 597.4" style="enable-background:new 0 0 597.4 597.4;" xml:space="preserve">
<style type="text/css">
	.st0{fill:#F2E9DA;}
	.st1{fill:#57BEAD;}
	.st2{fill:#F2E9DA;stroke:#000000;stroke-width:3;stroke-miterlimit:10;}
</style>
<g>
	<circle id="big_1_" class="st0" cx="298.7" cy="298.7" r="298.7"/>
	<circle id="middle_1_" class="st1" cx="298.7" cy="298.7" r="274.5"/>
	<circle id="small_1_" class="st0" cx="298.7" cy="298.7" r="236"/>
	<g>
		<path d="M297.6,195.4c0.1,10.1-1.5,18.3-5,24.7c-3.5,6.4-8.2,11.4-14.1,14.9c-5.9,3.6-12.7,6-20.1,7.5c-7.5,1.4-15.2,2.3-23,2.6
			c-0.4,0.2-1.1,0.2-2,0.2c-3,8.6-6.4,17.1-10.2,25.6c-3.9,8.5-8,16-12.5,22.5c-4.5,6.5-9.2,11.6-14.1,15.2
			c-5,3.6-10.1,4.9-15.2,3.7h-0.4c-0.4,0-0.8-0.1-1.1-0.2c-3.9-1.2-6.2-3.1-7.1-5.7c-0.9-2.6-1-5.1-0.4-7.5c0.4-2.5,1.3-4.5,2.7-6
			c0.3-0.3,0.7-0.6,1.1-0.9c0.4-0.3,1-0.2,1.6,0.2c0.3,0.3,1,0.7,2.2,1.3c3.7,1.3,8.5-1.6,14.2-8.9c5.8-7.3,11.9-18.8,18.5-34.7
			c0.3,0,0.5-0.1,0.7-0.2l-0.4-0.2l0.4-2l0.4-1.3c-1.5,0.1-3.2,0.5-5.1,1.1c-3.9,1.2-6.9,2.7-9,4.7c-2.2,1.9-3.6,3.8-4.3,5.6
			c-0.1,0.4-0.4,0.6-0.7,0.6c-0.3-0.1-0.5-0.2-0.7-0.3c-0.7-0.7-1.6-1.8-2.7-3.1c-1-1.3-1.7-2.8-2-4.5c-0.6-2.7,0-5.4,1.9-8.2
			c1.9-2.8,5.6-4.7,11.2-5.6c2.1-0.4,4.3-0.7,6.8-0.8c2.4-0.1,5.2,0,8.1,0.3c3.4-9.5,6.8-19.1,10.1-28.7c3.3-9.6,6.9-19.7,10.8-30.1
			c0-0.3,0.4-0.6,1.1-0.9l18,0.9c0.7,0,1,0.4,0.9,1.1c-0.1,1.2-0.9,3.8-2.2,7.8c-1.3,4-3,8.8-5,14.2c-2,5.5-4.2,11.4-6.5,17.7
			c-2.3,6.3-4.5,12.4-6.6,18.4l2.2-0.2c4.2-0.1,8.3-1,12.6-2.6c4.2-1.6,8.1-3.6,11.7-6.1c3.6-2.5,6.6-5.4,9.2-8.6
			c2.6-3.2,4.3-6.6,5.2-10.1c0.7-3.3,1-6.8,0.7-10.7c-0.3-3.9-1.3-7.5-3.1-11c-1.8-3.5-4.4-6.6-7.8-9.5c-3.4-2.8-7.8-4.9-13.1-6.2
			c-0.7-0.3-1.9-0.6-3.3-0.9c-4.5-0.9-9.1-1.3-13.9-1.1c-4.8,0.1-9.5,0.9-14.1,2.2c-4.6,1.3-8.9,3.4-12.8,6.2
			c-3.9,2.8-7.1,6.5-9.5,10.9c-4,6.7-5.6,12.2-4.8,16.5c0.8,4.3,2.7,6.8,5.7,7.3c1.8,0.3,3.2,0,4.2-1c1-1,1.9-2,2.4-3
			c0.3-0.3,0.6-0.5,0.9-0.7c0.3-0.1,0.7-0.1,1.3,0.2c0.9,1.2,1.6,2.3,2,3.3c0.3,0.6,0.4,1.3,0.4,2c0,2.7-0.5,5-1.6,6.9
			c-0.9,1.6-2.5,3.1-4.8,4.5c-2.3,1.3-5.7,1.7-10.1,1.1c-3.4-0.6-6.5-1.9-9.1-4c-2.2-1.8-4.2-4.4-5.9-7.9c-1.7-3.5-2.3-8.4-1.7-14.8
			c0.6-8.8,3.8-16.3,9.6-22.5c5.8-6.2,12.8-11.1,21.1-14.5c8.3-3.4,17.3-5.4,27-5.9c9.7-0.5,18.8,0.5,27.2,3.1
			c8.4,2.6,15.6,6.9,21.6,12.8C293.2,178.2,296.7,185.9,297.6,195.4z"/>
		<path d="M312.9,297.8c3.9,0,7.4-1.4,10.7-4.3c3.3-2.9,6.3-6.8,9.2-11.7c2.9-4.9,5.7-10.6,8.3-17.1c2.7-6.5,5.4-13.5,8.2-20.9
			l21.8-61.7c0-0.4,0.5-0.7,1.6-0.9h16.5c0.3,0,0.6,0.1,0.9,0.2c0.3,0.1,0.4,0.4,0.2,0.9L371,237.5c-1.6,4.6-3.4,9.6-5.2,14.9
			c-1.9,5.3-4,10.7-6.5,16.1c-2.4,5.4-5.2,10.6-8.2,15.6c-3,5-6.6,9.3-10.6,13c-4,3.7-8.5,6.6-13.6,8.7c-5,2.1-10.7,2.9-16.9,2.4
			c-6.1-0.6-11.1-2.5-15-5.8c-3.9-3.3-6.1-7.7-6.6-13.4c-0.3-2.8,0-5.2,0.9-7.1c0.9-1.9,2-3.5,3.5-4.8c1.4-1.3,2.9-2.1,4.6-2.6
			c1.6-0.4,3-0.5,4.2-0.2c1.6,0.4,2.8,1.3,3.6,2.6c0.7,1.3,1.3,2.3,1.6,3.2c0,0.6-0.1,1-0.4,1.3c-0.1,0.1-0.4,0.2-0.7,0.2
			c-1.6,0.4-2.7,1.4-3.1,2.9c-0.3,0.7-0.4,1.6-0.4,2.4c-0.3,2.5,0.1,4.5,1.2,5.9c1.1,1.4,2.4,2.5,3.9,3.2
			C308.8,297,310.7,297.5,312.9,297.8z M471,148.9c2.1,0.3,4.3,1,6.7,2.2c2.4,1.2,3.9,3.9,4.7,8.2c1,6.7-1.6,11.9-7.9,15.8
			c-6.3,3.9-16.2,5.3-29.7,4.5c-3.7-0.3-8.6-0.7-14.7-1.1c-6.1-0.4-12.7-0.9-19.8-1.3l-26-1.6c-5.5-0.4-10.7-0.8-15.5-1
			c-4.8-0.2-9-0.5-12.6-0.8c-6.1-0.3-11.2,0.2-15.4,1.6c-4.2,1.3-7.6,3.1-10.2,5.3c-2.7,2.2-4.7,4.7-6.1,7.5c-1.4,2.7-2.4,5.3-3,7.7
			c-1.2,4.6-0.8,8.6,1.1,11.9c1.9,3.3,4.6,5.2,8,5.5c2.1,0.3,4,0,5.7-0.9c1.7-0.9,3.2-1.9,4.3-2.9c0.6-0.3,1.3-0.6,2.2-1
			c0.9-0.4,1.7,0,2.4,1c0.4,0.7,0.8,1.8,1,3.1c0.2,1.3,0,3-0.8,4.9c-1.3,4.8-4.5,8.1-9.5,10c-5,1.9-10.7,1.9-17.3-0.2
			c-3.9-1.3-7-3.3-9.3-5.8c-2.4-2.5-4.2-5.4-5.5-8.7c-1.3-3.3-2-6.6-2.1-10c-0.1-3.4,0-6.7,0.4-9.8c0.6-2.5,1.9-5.9,3.8-10.2
			c1.9-4.3,5-8.5,9.4-12.5c4.3-4,10.1-7.3,17.3-9.8c7.2-2.5,16.4-3.3,27.5-2.4c7.7,0.6,15.6,1.4,23.7,2.6c8.1,1.1,16,2.2,23.7,3.2
			c7.7,1,15.1,2,22,2.8c7,0.8,13.2,1.2,18.8,1.1c5.6-0.1,10.2-0.7,13.8-1.9c3.6-1.2,6-3.3,7.2-6.2c0.3-0.9,0.5-1.8,0.7-2.7
			c0.3-1.8,0.1-3.6-0.7-5.3c-0.1-0.1-0.2-0.3-0.2-0.4c-0.3-0.4-0.4-0.9-0.4-1.4C468.7,149.1,469.5,148.9,471,148.9z"/>
	</g>
	<g>
		<path d="M246.7,352.9c-1.6,2.1-3.5,4.3-5.8,6.6c-2.3,2.3-4.9,4.2-7.8,5.7c2.4,0.8,5,1.6,7.8,2.3c2.8,0.7,5.6,1.3,8.4,1.8
			c2.8,0.5,5.6,0.9,8.3,1.3c2.7,0.3,5.2,0.5,7.4,0.5c3,0,5.4-0.3,7.3-1c1.9-0.7,2.8-1.7,2.8-3.1c0-0.7-0.4-1.1-1.1-1.1
			c-0.4,0-0.8,0.1-1.2,0.2c-0.4,0.1-0.8,0.2-1.1,0.2c-0.3,0-0.4-0.1-0.4-0.3c0-0.4,0.1-0.8,0.4-1.1c0.3-0.3,0.6-0.6,1-0.8
			c0.4-0.2,0.8-0.4,1.2-0.5c0.4-0.1,0.8-0.2,1.1-0.2c1.1,0,2.2,0.4,3.2,1.2c1,0.8,1.5,1.9,1.5,3.4c0,1.7-0.5,3.1-1.4,4.2
			c-0.9,1.1-2.2,2.1-3.7,2.8c-1.6,0.7-3.3,1.2-5.3,1.6c-2,0.3-4.1,0.5-6.4,0.5c-3.4,0-7.1-0.3-11-0.9c-3.9-0.6-7.8-1.4-11.5-2.3
			c-3.8-1-7.3-2-10.6-3.2c-3.3-1.2-6.1-2.3-8.3-3.4c-0.1-0.1-0.2-0.2-0.3-0.3c-0.2-0.1-0.2-0.3-0.2-0.6l-0.3-5.9
			c0-0.3,0.1-0.4,0.2-0.4c0.8,0,1.6,0.3,2.6,0.9c1,0.6,2.2,1.2,3.5,1.8c2.8-1.4,5.5-3.4,8-6c2.5-2.6,4.9-5.5,7-8.7
			c2.1-3.2,4-6.5,5.5-10c1.6-3.5,2.8-6.7,3.6-9.8l0.2-0.7c0.4-1.6,0.6-2.9,0.6-3.9c0-1.1-0.1-1.8-0.3-2c-0.2-0.2-0.4-0.5-0.8-0.8
			l-0.2-0.2c-0.1,0-0.2,0-0.4,0c-0.1,0-0.3,0-0.4,0c-0.8,0-1.4,0.4-1.8,1.1c-0.4,0.7-0.7,1.8-1,3.1c-0.1,0.4-0.2,1.2-0.4,2.4
			c-0.2,1.2-0.5,2.5-1,3.9c-0.4,1.4-1,3-1.6,4.5c-0.6,1.6-1.4,3-2.3,4.3c-0.9,1.3-2,2.4-3.2,3.2c-1.2,0.8-2.6,1.3-4.1,1.3
			c-0.7,0-1.3-0.1-2-0.3c-0.7-0.2-1.3-0.5-1.9-0.8c-0.6-0.3-1.1-0.7-1.5-1c-0.4-0.4-0.6-0.7-0.6-0.9c0-0.4,0.3-0.7,0.8-0.8
			c1.4-0.2,2.6-0.6,3.7-1.4c1.1-0.8,2.1-1.8,3-3c0.9-1.2,1.7-2.6,2.4-4.1c0.7-1.5,1.3-3.1,1.8-4.7c1-2.9,2.1-5.1,3.3-6.7
			c1.2-1.6,2.3-2.8,3.4-3.6c1.1-0.8,2.1-1.3,3-1.5c0.9-0.2,1.6-0.3,2.1-0.3h0.2c0.8,0.1,1.4,0.2,2,0.4c0.5,0.2,1,0.4,1.5,0.6
			c0.5,0.2,0.9,0.5,1.2,0.8c0.9,0.8,1.6,1.8,2,2.9c0.4,1.1,0.6,2.3,0.6,3.6c0,0.4-0.1,1.5-0.3,3.1c-0.2,1.7-0.7,3.8-1.6,6.4
			c-0.8,2.6-2.1,5.6-3.8,9C252,345.3,249.7,348.9,246.7,352.9z"/>
		<path d="M255.5,359.9c-0.3-0.8-0.4-1.7-0.3-2.7c0.1-1,0.2-1.8,0.3-2.7c0.2-1,0.5-1.9,0.7-2.9l0.5-1.3l0.5-1.6l4.1-11.7
			c0.1,0,0.1-0.1,0.2-0.2c0.1-0.1,0.2-0.2,0.4-0.2h6.3c0.1,0,0.2,0,0.3,0c0.1,0,0.1,0.2,0.1,0.4l-2.6,7.6c-0.3,0.8-0.6,1.6-0.9,2.5
			c-0.3,0.8-0.6,1.7-0.9,2.7c-0.4,1-0.7,2.1-1.1,3.1c-0.3,1-0.7,2-1.1,3c-0.1,0.2-0.1,0.4-0.2,0.7c-0.1,0.2-0.1,0.4-0.2,0.7
			c-0.1,0.2-0.1,0.5-0.1,0.7v0.4c0,0.2,0,0.3,0.1,0.3l0.2,0.5c0.3,0.3,0.8,0.3,1.3,0c0.6-0.3,1.2-0.9,1.9-1.6
			c0.7-0.7,1.4-1.6,2.1-2.7c0.7-1,1.4-2.1,2.1-3.1c0.7-1,1.2-2,1.7-2.9c0.5-0.9,0.8-1.6,1.1-2.2h1.6c-1.3,3-2.6,5.7-4.1,8.1
			c-0.7,1-1.4,1.9-2.1,2.9c-0.8,1-1.6,1.8-2.5,2.5c-0.9,0.7-1.9,1.3-2.9,1.7c-1,0.4-2.1,0.6-3.1,0.4c-0.3,0-0.5,0-0.7-0.1
			c-0.2-0.1-0.4-0.1-0.7-0.2s-0.5-0.2-0.8-0.4c-0.4-0.3-0.7-0.6-1-1.1c-0.1-0.1-0.2-0.2-0.2-0.4c-0.1-0.1-0.1-0.3-0.2-0.4
			C255.5,360,255.5,359.9,255.5,359.9z M263.3,328c-0.1-0.8,0-1.4,0.2-1.6c0.2-0.3,0.9-0.4,2-0.4h4.6c1.1,0,1.8,0.4,2,1.1
			c0.2,0.7-0.1,1.5-0.9,2.4l-3.3,4c-0.8,1-1.6,1.5-2.4,1.5s-1.4-0.5-1.6-1.5L263.3,328z"/>
		<path d="M294.8,339.3L294.8,339.3c-0.2,0.5-0.3,1-0.5,1.4c-0.2,0.5-0.4,0.9-0.6,1.3c-0.4,0.9-1.1,2.2-2,3.8
			c-0.9,1.6-2,3.3-3.3,5.1c-1.3,1.8-2.9,3.6-4.8,5.5c-1.9,1.9-3.9,3.5-6.3,5.1c-1.6,0.9-3.2,1.3-4.7,1.2c-0.3,0-0.5,0-0.7-0.1
			c-0.5-0.1-1-0.3-1.4-0.7c-0.4-0.3-0.8-0.6-1-1.1h-0.1c-0.1-0.1-0.2-0.2-0.2-0.4c-0.1-0.1-0.1-0.3-0.2-0.4
			c-0.1-0.1-0.1-0.2-0.1-0.2h0.1c-0.3-0.8-0.4-1.7-0.4-2.7c0-1,0.1-1.8,0.3-2.7c0.2-1,0.5-1.9,0.7-2.9l0.5-1.3l0.6-1.6l4.1-11.7
			l0.2-0.2c0.1-0.1,0.2-0.2,0.4-0.2h6.4c0.1,0,0.1,0,0.3,0c0.1,0,0.1,0.2,0,0.4l-2.6,7.6l-1.8,5.1c-0.3,1-0.7,2.1-1,3.1
			c-0.4,1-0.7,2-1.1,3c-0.1,0.2-0.1,0.4-0.2,0.7c-0.1,0.2-0.1,0.4-0.2,0.7c-0.1,0.2-0.1,0.5-0.1,0.7v0.4c0.1,0.1,0.1,0.2,0.1,0.3
			l0.2,0.5c0.4,0.4,0.9,0.4,1.6,0c0.7-0.4,1.4-1.1,2.1-2c0.9-1.1,1.8-2.4,2.7-4.1c0.9-1.6,1.6-3.2,2.3-4.8c0.8-1.8,1.5-3.7,2.2-5.7
			l1.9-5.6c0.1,0,0.1-0.1,0.2-0.2c0.1-0.1,0.2-0.2,0.4-0.2h6.3c0.1,0,0.2,0,0.3,0c0.1,0,0.1,0.2,0.1,0.4L294.8,339.3z"/>
		<path d="M314.6,354.8c1-1.3,1.9-2.7,2.8-4.1c0.9-1.4,1.6-2.7,2.2-3.8h1.6c-0.3,0.8-0.7,1.7-1.2,2.6c-0.4,0.8-0.9,1.6-1.5,2.6
			c-0.5,1-1.2,2-2,3c-0.2,0.3-0.5,0.7-0.9,1.2c-0.4,0.5-0.8,1-1.3,1.5c-0.8,0.8-1.8,1.7-3,2.5c-1.3,0.9-2.7,1.6-4.4,2.1
			c-2,0.7-4.1,0.9-6.5,0.7c-0.6-0.1-1.1-0.1-1.6-0.2c-0.4-0.1-0.9-0.2-1.3-0.4c-1-0.4-1.8-0.9-2.4-1.5c-0.6-0.6-1.1-1.3-1.4-2
			c-0.3-0.7-0.5-1.4-0.6-2.2c-0.1-0.7-0.1-1.4,0-2.1c0.1-0.6,0.1-1.1,0.2-1.6c0.1-0.5,0.2-0.8,0.3-1.1c0.3-1.6,1-3.2,1.9-4.9
			c1.8-3.6,4-6.2,6.5-8s5.1-2.5,7.8-2.5c0.8,0,1.5,0.1,2.1,0.3c0.6,0.2,1.2,0.6,1.8,1c0.6,0.5,1,1.2,1.3,2.1
			c0.1,0.2,0.1,0.5,0.3,0.9c0.1,0.4,0.2,1,0.1,1.7c0,0.4-0.1,1-0.2,1.8c-0.2,0.8-0.5,1.8-1,2.9c-0.5,1.1-1.3,2.2-2.4,3.2
			c-1.1,1-2.6,2-4.5,2.8c-1.9,0.8-4.2,1.4-7,1.6c-0.1,0.8,0,1.6,0.1,2.4c0.1,0.8,0.5,1.4,1,1.9c0.3,0.3,0.5,0.4,0.7,0.5
			c0.3,0.2,0.6,0.3,1.1,0.4c1,0.2,1.9,0.2,2.9,0c0.9-0.2,1.8-0.4,2.5-0.8c0.9-0.4,1.7-0.9,2.3-1.3c0.8-0.5,1.5-1.2,2.2-1.9
			C313.8,355.7,314.3,355.1,314.6,354.8z M302.3,348.6c-0.2,0.5-0.5,1.3-0.8,2.2c-0.3,0.9-0.6,1.6-0.7,2.2c0.8-0.2,1.7-0.6,2.7-1.1
			c1.1-0.5,2.1-1.1,3.1-2c1-0.8,1.9-1.8,2.7-3c0.8-1.2,1.3-2.7,1.6-4.4c0.1-0.9,0.1-1.5,0-1.9c-0.1-0.4-0.2-0.7-0.3-0.9
			c-0.2-0.2-0.5-0.3-0.8-0.3h-0.2c-0.9,0.1-1.7,0.4-2.4,1.1c-0.7,0.7-1.4,1.5-2,2.4c-0.6,0.9-1.2,1.9-1.7,2.9
			C303,347,302.6,347.8,302.3,348.6z"/>
	</g>
	<path class="st2" d="M465,363.6c-0.9-0.7-2.1-0.9-3.3-0.7l-264.2,41.4c-13.2,2-24.1,11.5-27.5,24.4c-2.7,10.2-0.2,20.3,19.2,21.4
		c35.9,2,234.1-68.4,274.6-83.7C466.6,365.4,466.1,364.3,465,363.6z"/>
	<circle class="st0" cx="188" cy="428.8" r="22.3"/>
	<circle cx="186.3" cy="428.8" r="22.3"/>
	<circle class="st0" cx="186.3" cy="428.8" r="20.1"/>
</g>
</svg>
