<?xml version="1.0" encoding="utf-8"?>
<!-- Generator: Adobe Illustrator 22.1.0, SVG Export Plug-In . SVG Version: 6.00 Build 0)  -->
<svg version="1.1" id="Layer_1" xmlns="http://www.w3.org/2000/svg" xmlns:xlink="http://www.w3.org/1999/xlink" x="0px" y="0px"
	 viewBox="0 0 510.7 453.8" style="enable-background:new 0 0 510.7 453.8;" xml:space="preserve">
<style type="text/css">
	.st0{fill:#FFFFFF;stroke:#000000;stroke-width:10;stroke-linecap:round;stroke-miterlimit:10;}
	.st1{fill:#FFFFFF;stroke:#000000;stroke-width:5;stroke-miterlimit:10;}
	.st2{fill:none;stroke:#000000;stroke-miterlimit:10;}
	.st3{fill:none;stroke:#000000;stroke-width:3;stroke-miterlimit:10;}
	.st4{fill:#FFFFFF;stroke:#000000;stroke-width:3;stroke-miterlimit:10;}
	.st5{fill:none;stroke:#000000;stroke-width:4;stroke-miterlimit:10;}
	.st6{fill:none;stroke:#000000;stroke-width:9;stroke-miterlimit:10;}
	.st7{fill:#FFFFFF;}
	.st8{fill:none;stroke:#000000;stroke-width:10;stroke-miterlimit:10;}
</style>
<path class="st0" d="M479.3,100.2h-28C406,42.5,335.6,5.4,256.6,5.4S107.1,42.5,61.8,100.2h-57v240.9h47.3
	c44.5,65.2,119.5,108,204.4,108s159.9-42.8,204.4-108h45.5V100.2H479.3z"/>
<path class="st1" d="M165.1,386c-14.2-8.1-27.2-18.1-38.6-29.5"/>
<path class="st1" d="M204.5,402.7c-11.2-3.2-21.8-7.4-32-12.7"/>
<path class="st1" d="M288.1,406.9"/>
<path class="st2" d="M103.6,231.3"/>
<path class="st2" d="M120.1,239.8"/>
<path class="st2" d="M135.6,247.7"/>
<line class="st2" x1="150.2" y1="255.2" x2="149.8" y2="255"/>
<path class="st2" d="M150.2,255.2"/>
<g>
	<line class="st3" x1="103.6" y1="231.3" x2="95.8" y2="227.3"/>
	<line class="st3" x1="120.1" y1="239.8" x2="111.4" y2="235.3"/>
	<line class="st3" x1="135.6" y1="247.7" x2="127.3" y2="243.5"/>
	<line class="st3" x1="149.8" y1="255" x2="142.9" y2="251.5"/>
	<line class="st3" x1="162.3" y1="261.4" x2="156.3" y2="258.3"/>
</g>
<path class="st2" d="M162.3,261.4"/>
<path class="st2" d="M177.1,269"/>
<path class="st2" d="M152.8,163.2"/>
<path class="st2" d="M161,175.1"/>
<path class="st2" d="M169.2,186.9"/>
<path class="st2" d="M177.1,198.4"/>
<path class="st2" d="M185.6,210.7"/>
<path class="st2" d="M193.3,221.8"/>
<g>
	<line class="st3" x1="152.8" y1="163.2" x2="148.5" y2="157"/>
	<line class="st3" x1="161" y1="175.1" x2="156.4" y2="168.4"/>
	<line class="st3" x1="169.2" y1="186.9" x2="164.9" y2="180.8"/>
	<line class="st3" x1="177.1" y1="198.4" x2="172.8" y2="192.2"/>
	<line class="st3" x1="185.6" y1="210.7" x2="181" y2="204"/>
	<line class="st3" x1="193.3" y1="221.8" x2="189.2" y2="215.9"/>
	<line class="st3" x1="200.9" y1="232.7" x2="197.1" y2="227.3"/>
</g>
<path class="st2" d="M400.1,228"/>
<g>
	<line class="st3" x1="405.8" y1="232" x2="413.1" y2="228.1"/>
	<line class="st3" x1="390.1" y1="240.5" x2="398.3" y2="236.1"/>
	<line class="st3" x1="375.4" y1="248.4" x2="383.3" y2="244.2"/>
	<line class="st3" x1="362" y1="255.7" x2="368.5" y2="252.2"/>
	<line class="st3" x1="350.2" y1="262.1" x2="355.8" y2="259"/>
</g>
<g>
	<line class="st3" x1="348.2" y1="160.9" x2="352.2" y2="154.7"/>
	<line class="st3" x1="340.4" y1="172.8" x2="344.7" y2="166.2"/>
	<line class="st3" x1="332.7" y1="184.6" x2="336.7" y2="178.5"/>
	<line class="st3" x1="325.1" y1="196.1" x2="329.2" y2="189.9"/>
	<line class="st3" x1="317.1" y1="208.4" x2="321.4" y2="201.8"/>
	<line class="st3" x1="309.8" y1="219.5" x2="314.2" y2="212.8"/>
	<line class="st3" x1="302.7" y1="230.4" x2="306.2" y2="225.1"/>
</g>
<path class="st2" d="M200.9,232.7"/>
<g>
	<polyline class="st4" points="175,391.9 175,262.8 204,281.7 204,405.2 	"/>
</g>
<line class="st3" x1="176" y1="289.9" x2="192.4" y2="289.9"/>
<line class="st3" x1="176" y1="314" x2="192.4" y2="314"/>
<line class="st3" x1="176" y1="338.2" x2="192.4" y2="338.2"/>
<line class="st3" x1="176" y1="362.4" x2="192.4" y2="362.4"/>
<line class="st3" x1="176" y1="386.6" x2="192.4" y2="386.6"/>
<g>
	<path class="st4" d="M339.4,392.9l-0.3-128.1l-29.1,19v120.7c0,0,15.3-3.2,30.2-12.6"/>
</g>
<line class="st3" x1="339" y1="291.9" x2="319.8" y2="291.9"/>
<line class="st3" x1="339" y1="316" x2="319.8" y2="316"/>
<line class="st3" x1="339" y1="340.2" x2="319.8" y2="340.2"/>
<line class="st3" x1="339" y1="364.4" x2="319.8" y2="364.4"/>
<line class="st3" x1="339" y1="388.6" x2="319.8" y2="388.6"/>
<path class="st3" d="M309.8,400.7"/>
<path class="st3" d="M329,400.7"/>
<path class="st3" d="M163.9,386.9v-89.8c0,0-35.3,6.5-35.3,37v24.4"/>
<path class="st4" d="M158.6,306.7c0,0-23.9,9.5-21.8,29.2"/>
<path class="st4" d="M160,311.9c0,0-19.5,8.3-14.7,24.1"/>
<path class="st4" d="M160,320.1c0,0-10.6,5.2-7.7,15.8"/>
<polyline class="st4" points="134.3,364.3 134.3,344.3 158,344.3 158,382 "/>
<g>
	<path class="st4" d="M385.3,362.6l0.6-27.3c0-30.5-35.3-37-35.3-37v89.8C350.6,387.9,376,375.5,385.3,362.6z"/>
	<polyline class="st3" points="380.2,368.3 380.2,342.3 356.5,342.3 356.5,384 	"/>
	<path class="st4" d="M355.9,307.7c0,0,23.9,9.5,21.8,29.2"/>
	<path class="st4" d="M354.5,312.9c0,0,19.5,8.3,14.7,24.1"/>
	<path class="st4" d="M354.5,321.1c0,0,10.6,5.2,7.7,15.8"/>
</g>
<g>
	<path d="M212.5,44.9v46.8l-0.1,5.4l0.2,4.7c0.4,4.5,2.1,7.2,5,7.9c2.1,0.6,3.6,0.8,4.7,0.8c1.1,0,1.7,0.3,1.7,1
		c0.1,0.9-0.6,1.4-2,1.4c-0.6,0-1.9-0.1-3.8-0.2c-1.2-0.1-3.1-0.1-5.8-0.1l-4-0.1l-4.4,0.1c-2.2,0-3.9,0.1-5,0.2
		c-1.5,0.2-2.5,0.3-3.2,0.3c-1,0-1.5-0.4-1.5-1.1s0.6-1.1,1.8-1.3c2.9-0.4,4.9-2.1,6-4.9s1.6-8,1.6-15.4v-34
		c0-7.8-0.5-12.8-1.4-14.9s-3.3-3.3-7-3.7c-1-0.1-1.5-0.5-1.5-1.1c0-0.9,0.8-1.3,2.2-1.3c0.7,0,1.7,0.1,2.9,0.3
		c2.4,0.3,4.3,0.5,5.8,0.5c2.4,0,5.9-0.2,10.4-0.6c2.4-0.2,4.3-0.3,5.8-0.3c7.8,0,14.2,1.9,19,5.6s7.3,8.7,7.3,14.7
		c0,7.3-3,13.1-9,17.3c-4.5,3.1-9.2,4.7-14.2,4.7c-2.4,0-4.5-0.3-6.5-0.8s-2.9-1.1-2.8-1.6c0.1-0.4,0.4-0.7,1.1-0.7
		c0.3,0,0.7,0.1,1.1,0.2c0.9,0.3,2.2,0.4,4.1,0.4c5.4,0,9.7-1.5,12.9-4.4c3.2-3,4.8-6.9,4.8-11.8c0-5.7-2.1-10.3-6.4-14.1
		c-4.3-3.7-9.6-5.6-16.2-5.6c-1.5,0-2.5,0.3-3.1,0.8c-0.6,0.6-0.8,1.6-0.8,3.2L212.5,44.9z"/>
	<path d="M325.4,41.3h-15.8c-1.6,0-2.7,0.2-3.1,0.7c-0.4,0.4-0.6,1.6-0.6,3.3v55l0.1,2.2c0.2,4.4,2.6,7,7.3,7.8c1.3,0.2,2,0.6,2,1.3
		c0,0.8-0.5,1.2-1.6,1.2c-0.4,0-1.4-0.1-2.8-0.3c-0.7-0.1-2.4-0.2-5.1-0.2l-4.1-0.1l-4.4,0.1c-1.6,0-2.9,0.1-4,0.2
		c-2.1,0.2-3.4,0.3-3.8,0.3c-1.1,0-1.7-0.4-1.7-1.2c0-0.6,0.6-0.9,1.8-1.1c2.9-0.4,4.8-1.2,5.8-2.4c1-1.2,1.5-3.4,1.5-6.5V46
		l-0.1-1.5c0-1.3-0.2-2.2-0.6-2.6s-1.3-0.6-2.7-0.6h-14.9c-3,0-5.2,0.6-6.6,1.8c-1.4,1.2-2.4,3.5-3.2,6.9c-0.3,1.5-0.8,2.2-1.5,2.1
		s-1-0.5-1-1.5c0-0.8,0.2-2.2,0.7-4.3c0.6-2.7,0.8-4.9,0.8-6.6s0.2-2.8,0.6-3.4c0.4-0.5,1.2-0.8,2.5-0.8h60.4c2.1,0,3.3,0.2,3.7,0.7
		c0.4,0.4,0.6,1.8,0.6,4s0.1,3.8,0.3,4.8c0.2,1.3,0.3,2.2,0.3,2.7c0,1.1-0.4,1.7-1.2,1.8c-0.7,0-1.1-0.5-1.3-1.7
		c-0.5-2.7-1.3-4.4-2.4-5.2C330.7,41.7,328.6,41.3,325.4,41.3z"/>
</g>
<g>
	<path d="M215.9,155.4v0.8c0,1.8,0.2,2.9,0.5,3.2c0.3,0.3,1.5,0.5,3.4,0.5c2.8,0,5.3-0.3,7.4-1c2.1-0.7,3.4-1.6,4-2.7
		c0.2-0.4,0.4-0.6,0.6-0.6c0.2,0,0.4,0.2,0.3,0.5c-0.1,1-0.6,2.1-1.5,3.3c-1.3,1.7-3.4,2.5-6.4,2.5c-0.5,0-1.1,0-1.7-0.1l-2.5-0.2
		c-1.4-0.1-3-0.2-4.6-0.2c-1.9,0-3.4,0.1-4.7,0.3c-0.5,0.1-1,0.1-1.3,0.1c-0.4,0-0.6-0.1-0.6-0.4c0-0.2,0.2-0.4,0.6-0.5
		c1.1-0.3,1.8-0.8,2.1-1.4c0.4-0.6,0.5-1.7,0.5-3.1v-1V135c0-2-0.8-3.2-2.5-3.5l-1-0.2c-0.4-0.1-0.5-0.2-0.5-0.4
		c0-0.3,0.3-0.5,0.8-0.5c0.3,0,0.8,0,1.4,0.1c1,0.1,2.2,0.1,3.5,0.1c1.4,0,2.7,0,3.8-0.1c0.6,0,0.9,0,1,0c0.4,0,0.5,0.1,0.5,0.3
		c0,0.3-0.2,0.5-0.7,0.6l-0.8,0.2c-1.4,0.3-2.1,1.7-2.1,4.1v19.7H215.9z"/>
	<path d="M241.4,137v17.1c0,2.1,0.1,3.5,0.4,4.2c0.3,0.8,0.7,1.3,1.1,1.6c0.4,0.3,1.2,0.5,2.1,0.7c0.8,0.1,1.1,0.3,1.1,0.6
		c0,0.4-0.2,0.5-0.7,0.5c-0.2,0-0.5,0-0.9-0.1c-0.5-0.1-1.3-0.1-2.4-0.1l-3.3-0.1l-2.7,0.2c-0.4,0-0.8,0.1-1.1,0.1
		c-0.4,0-0.6-0.2-0.6-0.5s0.2-0.4,0.7-0.5c1.2-0.2,1.9-0.6,2.2-1.2s0.5-1.9,0.5-3.8v-19.6c0-1.9-0.2-3.2-0.7-3.8s-1.4-1.1-2.8-1.3
		c-0.5-0.1-0.7-0.3-0.7-0.5c0-0.3,0.2-0.5,0.7-0.5c0.1,0,0.3,0,0.4,0c1.1,0.1,2.6,0.2,4.4,0.2c1.1,0,2.1,0,2.9-0.1l1.5-0.1
		c0.3,0,0.5,0,0.6,0c0.4,0,0.6,0.1,0.6,0.4s-0.2,0.5-0.6,0.6l-1.2,0.5C242,132,241.4,133.8,241.4,137z"/>
	<path d="M255.5,135.7l8.8,20.1c0.2,0.5,0.4,0.7,0.6,0.7c0.2,0,0.4-0.4,0.8-1.3l0.4-0.8l5-11.9c2.2-5.1,3.2-8.4,3.2-9.9
		c0-0.5-0.1-0.9-0.3-1.1c-0.2-0.2-0.7-0.4-1.4-0.5c-0.9-0.2-1.3-0.4-1.3-0.6c0-0.3,0.3-0.4,0.8-0.4c0.1,0,0.3,0,0.7,0
		c1.1,0.1,1.8,0.1,2,0.1h0.9h1h0.6h1.9c0.3,0,0.5,0.1,0.5,0.4c0,0.2-0.2,0.4-0.5,0.5c-1.1,0.4-1.9,1.3-2.5,2.6l-0.6,1.5l-11.3,26.6
		c-0.3,0.7-0.6,1.1-0.9,1.1c-0.3,0-0.6-0.4-1-1.1l-11.6-26.8c-0.5-1.2-1-2.1-1.5-2.6c-0.4-0.5-1-0.8-1.8-0.9s-1.3-0.3-1.4-0.3
		c-0.1-0.1-0.2-0.2-0.2-0.4c0-0.3,0.2-0.4,0.6-0.4c0.1,0,0.3,0,0.7,0c0.3,0,1,0,2.3,0h2.2h1.5c0.3,0,0.8,0,1.5-0.1
		c0.3,0,0.5,0,0.6,0c0.4,0,0.6,0.1,0.6,0.4c0,0.2-0.2,0.4-0.5,0.5c-0.6,0.2-1,0.4-1.2,0.6s-0.2,0.4-0.2,0.8
		C254.6,133.2,254.9,134.3,255.5,135.7z"/>
	<path d="M288.2,133.9v9.2c0,0.7,0.1,1.1,0.2,1.3c0.1,0.1,0.5,0.2,1.2,0.2h3.5c1.6,0,2.9-0.1,3.8-0.3c0.8-0.2,1.4-0.4,1.6-0.7
		c0.2-0.3,0.5-0.9,0.7-1.9c0.1-0.4,0.3-0.6,0.6-0.5c0.3,0,0.4,0.2,0.4,0.6c0,0.1,0,0.3,0,0.5c-0.1,1.5-0.2,2.8-0.2,4
		c0,0.9,0,1.8,0.1,2.8c0,0.3,0,0.5,0,0.7c0,0.4-0.1,0.6-0.4,0.6s-0.5-0.2-0.6-0.5l-0.1-0.6c-0.2-1-0.5-1.7-1.1-2.1
		c-0.5-0.4-1.5-0.5-2.8-0.5h-5c-0.7,0-1.2,0.1-1.5,0.2c-0.3,0.2-0.4,0.5-0.4,0.9v0.8v8.4c0,1.3,0.2,2.1,0.7,2.4s1.6,0.5,3.5,0.5
		c6,0,9.8-1.3,11.5-4c0.2-0.3,0.3-0.4,0.5-0.4c0.3,0,0.4,0.2,0.4,0.6c0,1-0.6,2.2-1.7,3.5c-1.3,1.6-3,2.5-5.1,2.5
		c-0.4,0-1,0-1.8-0.1c-2.9-0.3-5.3-0.4-7.2-0.4c-2.7,0-4.5,0.1-5.6,0.3c-0.6,0.1-1,0.2-1.2,0.2c-0.5,0-0.7-0.2-0.7-0.5
		s0.2-0.4,0.6-0.5l0.9-0.3c1.1-0.3,1.6-1.4,1.6-3.2v-1.5v-19.3c0-2.2-0.2-3.6-0.7-4.4s-1.4-1.1-2.8-1.1c-0.4,0-0.7-0.1-0.7-0.4
		c0-0.4,0.3-0.6,1-0.6c0.4,0,0.9,0,1.5,0.1c2.2,0.2,4.8,0.4,7.9,0.4c1.9,0,3.5,0,4.9-0.1l3.2-0.2c0.9,0,1.4-0.1,1.6-0.1
		c0.4-0.1,0.7-0.1,0.9-0.1c0.5,0,0.8,0.2,0.8,0.7c0,0.1,0,0.3-0.1,0.5c0,0.2-0.1,0.8-0.2,1.8l-0.1,1.3c-0.1,0.9-0.2,1.4-0.2,1.6
		c-0.1,0.2-0.2,0.3-0.5,0.4c-0.3,0-0.4-0.2-0.4-0.7v-0.6c0-0.5-0.1-1-0.3-1.4c-0.3-0.7-0.9-1.1-1.8-1.4s-2.5-0.3-4.9-0.3h-3.6
		c-0.9,0-1.5,0.1-1.8,0.4C288.3,132.6,288.2,133.1,288.2,133.9z"/>
</g>
<line class="st3" x1="492" y1="120.3" x2="492" y2="321.4"/>
<line class="st3" x1="476.7" y1="147.9" x2="476.7" y2="294"/>
<line class="st3" x1="462" y1="249.3" x2="462" y2="193"/>
<polyline class="st4" points="289.7,406.6 289.7,229.4 278.5,229.4 278.5,219.9 265.3,219.9 265.3,174.5 250.1,174.5 250.1,219.9 
	237.9,219.9 237.9,229.4 225.7,229.4 225.7,405.6 "/>
<line class="st3" x1="237.9" y1="229.4" x2="278.5" y2="229.4"/>
<line class="st3" x1="250.1" y1="219.9" x2="265.3" y2="219.9"/>
<line class="st5" x1="231.6" y1="385.5" x2="282.7" y2="385.5"/>
<line class="st5" x1="231.6" y1="392.9" x2="282.7" y2="392.9"/>
<line class="st5" x1="231.6" y1="400.2" x2="282.7" y2="400.2"/>
<line class="st6" x1="253.9" y1="183.2" x2="262" y2="183.2"/>
<line class="st6" x1="253.9" y1="196.6" x2="262" y2="196.6"/>
<line class="st6" x1="253.9" y1="209.9" x2="262" y2="209.9"/>
<line class="st3" x1="20.4" y1="120.3" x2="20.4" y2="321.4"/>
<line class="st3" x1="35.7" y1="147.9" x2="35.7" y2="294"/>
<line class="st3" x1="50.4" y1="249.3" x2="50.4" y2="193"/>
<g>
	<g>
		<path class="st7" d="M144.8,367.6c-2.8,1.5-5.7,2.8-8.7,4c0.5,0.8,1,1.7,1.5,2.5c1.9-1.6,3.9-2.9,6-4.2c1.5-0.9,0.5-3.2-1.2-2.7
			c-2.2,0.6-4.5,1.2-6.7,1.9c0.4,0.9,0.8,1.8,1.2,2.7c1.6-1.1,3-1.9,4.9-2.6c1.8-0.7,1.1-3.5-0.8-2.9c-1.7,0.6-3.5,1.1-5.2,1.6
			c0.4,0.9,0.8,1.8,1.2,2.7c0.9-0.7,1.9-1.2,2.9-1.5c1.6-0.7,0.4-3.1-1.2-2.7c-1.6,0.3-3.1,0.7-4.7,1c0.3,1,0.5,1.9,0.8,2.9
			c1.7-0.5,3-1.1,4.5-2.1c1.3-0.9,0.7-2.7-0.8-2.8c-0.9-0.1-1.8-0.2-2.8-0.1c-2.5-0.2-3.5-1.2-3.2-3c-0.3-0.5-0.2-1.3-0.6-1.7
			c-1.2-1.6-6.6-0.9-5.2-4.3c-1-0.1-2-0.3-2.9-0.4c0.1,3,0,3.2,1.6,5c0.2,0.1,0.4,0.2,0.6,0.2c1.1,0.1,1.7,0.9,1.8,2.5
			c0.2,0.7-0.3,1.4,0.1,2.1c1.1,2.2,4.3,1.6,6.1,2.2c3.4,1.1,5.5,2.2,9.2,2.2c-0.5-0.6-1-1.3-1.4-1.9c-0.2,1.3-0.8,2.5-1.7,3.5
			c-0.7,0.9,0.2,2.3,1.3,2.3c0.7,0,1.5,0,2.2-0.1c-0.4-0.8-0.9-1.5-1.3-2.3c-0.4,0.7-0.9,1.5-1.3,2.2c-0.7,1.1,0.4,2.6,1.7,2.2
			c1.4-0.4,2.8-0.8,4.2-1.2c-0.5-0.8-1-1.7-1.5-2.5c-1.1,1.4-2.2,2.6-3.5,3.8c-1.1,1,0,3,1.5,2.5c1.7-0.6,3.3-1.1,5-1.7
			c-0.6-0.7-1.1-1.5-1.7-2.2c-0.5,0.7-1.1,1.5-1.6,2.2c-1.2,1.3,0.3,3.1,1.8,2.4c1-0.5,2.1-1,3.2-1.3c-0.6-0.6-1.2-1.2-1.8-1.8
			c-0.1,0.6-0.2,1.1-0.3,1.7c-0.2,1,0.7,2.3,1.8,1.8c0.6-0.2,1.1-0.4,1.7-0.6c-0.6-0.6-1.2-1.2-1.8-1.8c-0.2,0.9-0.2,1.5-0.3,2.4
			c0,0.9,1,1.8,1.9,1.4c0.5-0.2,1-0.4,1.6-0.6c-0.6-0.6-1.2-1.2-1.8-1.8c-0.2,1.6-0.5,3.4,1.5,3.9c1.4,0.3,2.5-0.6,2.8-1.9
			c-1,0-1.9,0-2.9,0c0.4,1.7,0.1,2.6,1.6,3.8c0.8,0.7,2.2,0.7,3.1,1.3c2.1,1.4,2.1,3.5,2.3,5.8c0.1,1.9,3.1,1.9,3,0
			c-0.1-2.1,0.2-5.3-1.2-7.1c-1.7-2.1-5-1.4-5.8-4.6c-0.4-1.4-2.6-1.5-2.9,0c0.5-0.1,1-0.2,1.5-0.3c0.1-1-0.7-2.3-1.8-1.8
			c-0.5,0.2-1,0.4-1.6,0.6c0.6,0.5,1.3,1,1.9,1.4c0.1-0.5,0.1-1.1,0.2-1.6c0.2-1-0.7-2.3-1.8-1.8c-0.6,0.2-1.1,0.4-1.7,0.6
			c0.6,0.6,1.2,1.2,1.8,1.8c0.1-0.6,0.2-1.1,0.3-1.7c0.2-1-0.7-2.3-1.8-1.8c-1.4,0.5-2.7,1-4,1.6c0.6,0.8,1.2,1.6,1.8,2.4
			c1.1-1.3,1.2-1.4,2.1-2.8c0.7-1.1-0.4-2.6-1.7-2.2c-1.7,0.6-3.3,1.1-5,1.7c0.5,0.8,1,1.7,1.5,2.5c1.3-1.2,2.4-2.4,3.5-3.8
			c0.9-1.1,0.1-3-1.5-2.5c-1.4,0.4-2.8,0.8-4.2,1.2c0.6,0.7,1.1,1.5,1.7,2.2c0.4-0.7,0.9-1.5,1.3-2.2c0.6-1-0.1-2.3-1.3-2.3
			c-0.7,0-1.5,0-2.2,0.1c0.4,0.8,0.9,1.5,1.3,2.3c1-1.4,1.6-2.6,2-4.2c0.3-0.9-0.5-1.9-1.4-1.9c-3.5,0-5.8-1.3-9-2.4
			c-2.2-0.7-2.6-0.7-3.3-2.9c-0.4-1.1-0.4-2.2-1.5-3.1c-1.8-1.4-2.4,0.1-2.5-2.9c0-1.8-2.3-1.9-2.9-0.4c-0.6,1.6-0.7,3.5,0.3,5
			c1.4,2,3.4,1.1,4.8,2.4c1.3,1.3,0.7,3.2,2.5,4.5c2,1.4,4.8,0.9,7.1,1.1c-0.3-0.9-0.5-1.9-0.8-2.8c-1.1,0.9-2.4,1.5-3.8,1.8
			c-1.9,0.5-1.1,3.3,0.8,2.9c1.6-0.3,3.1-0.7,4.7-1c-0.4-0.9-0.8-1.8-1.2-2.7c-1.1,0.4-2,0.9-2.9,1.5c-1.4,0.9-0.5,3.2,1.2,2.7
			c1.8-0.5,3.5-1,5.2-1.6c-0.3-1-0.5-1.9-0.8-2.9c-2,0.8-3.8,1.7-5.6,2.9c-1.3,0.9-0.6,3.2,1.2,2.7c2.2-0.6,4.5-1.3,6.7-1.9
			c-0.4-0.9-0.8-1.8-1.2-2.7c-2.3,1.4-4.5,2.9-6.6,4.6c-1.1,0.9,0.1,3,1.5,2.5c3.3-1.2,6.4-2.6,9.4-4.3
			C148,369.2,146.5,366.6,144.8,367.6L144.8,367.6z"/>
	</g>
</g>
<g>
	<g>
		<path class="st7" d="M168.2,380.5c-1.1,1.3-2,2.9-2.4,4.6c1,0,1.9,0,2.9,0c-0.2-0.7-0.1-1.3,0.2-1.9c0.9-1.7-1.7-3.2-2.6-1.5
			c-0.7,1.3-0.9,2.7-0.5,4.2c0.4,1.4,2.5,1.4,2.9,0c0.3-1.2,0.9-2.3,1.7-3.2c0.5-0.6,0.6-1.5,0-2.1
			C169.7,380,168.7,379.9,168.2,380.5L168.2,380.5z"/>
	</g>
</g>
<g>
	<g>
		<path class="st7" d="M158.5,386.3c0.4,1.3,1.3,2.1,2.4,2.8c0.5,0.3,1.1,0.6,1.6,0.8c0.3,0.1,0.6,0.2,1,0.2c0.1,0,0.3,0,0.4,0
			c0.5,0,0.5-0.1,0-0.2c-0.1-0.2-0.3-0.4-0.4-0.7c0.1-0.3,0-0.4-0.1-0.2c-1.3,1.4,0.8,3.6,2.1,2.1c0.5-0.6,1-1.3,1-2.1
			c0-0.9-0.7-1.7-1.6-1.9c-0.7-0.2-1.3,0.1-2-0.3c-0.5-0.3-1.3-0.7-1.5-1.3C160.9,383.6,158,384.4,158.5,386.3L158.5,386.3z"/>
	</g>
</g>
<g>
	<g>
		<path class="st7" d="M199.3,401.6c0,1.1,0,2.3-0.1,3.4c0,2,2.8,1.9,3,0c0.1-0.9,0.2-1.8,0.1-2.7c0-1.1-1.3-1.9-2.3-1.3
			c-3.7,2.2-11.8-4.2-15.6-5.8c-4.5-2-9.1-2.4-13.5-4.9c-1.7-1-3.2,1.6-1.5,2.6c5.9,3.3,12.1,4.2,18.1,7.2c3,1.5,6,3.6,9.1,4.6
			c2.3,0.8,2.8,0.2,4.9-1c-0.8-0.4-1.5-0.9-2.3-1.3c0.1,0.9,0,1.8-0.1,2.7c1,0,2,0,3,0c0-1.1,0-2.3,0.1-3.4
			C202.4,399.7,199.4,399.7,199.3,401.6L199.3,401.6z"/>
	</g>
</g>
<path class="st4" d="M291.1,406.9c-9.9,2-20.1,3-30.5,3c-12.5,0-24.6-1.4-36.4-4.1"/>
<path class="st3" d="M128.6,356.5c0,0,6.4,18.3,35.3,28.8"/>
<path class="st3" d="M204,404.5"/>
<path class="st3" d="M173.7,391.1c0,0,14.5,8.5,29.3,12.4"/>
<g>
	<g>
		<path class="st7" d="M124,356.4c0.1,0.3,0,0.7,0.1,1.1c0,0.2,0.1,0.4,0.1,0.6c0.1,0.2,0.1,0.7,0.2,0.1c-0.1,0.8,0.2,1.6,1,1.8
			c0.7,0.2,1.7-0.2,1.8-1c0.1-0.4,0.1-0.7,0-1.1c-0.1-0.3-0.2-0.5-0.2-0.8c-0.1-0.4,0-1.1-0.2-1.6c-0.3-0.8-1-1.3-1.8-1
			C124.3,354.8,123.8,355.6,124,356.4L124,356.4z"/>
	</g>
</g>
<g>
	<g>
		<path class="st7" d="M170.4,388.4c0.1,0.3-0.2,1.3-0.2,1.8c0,0.7,0,1.4-0.2,2.1c-0.5,1.9,2.3,2.6,2.9,0.8c0.3-0.9,0.3-1.9,0.4-2.9
			c0-0.9,0.3-1.8,0.1-2.6C172.9,385.7,170,386.5,170.4,388.4L170.4,388.4z"/>
	</g>
</g>
<line class="st8" x1="242.1" y1="237.5" x2="242.1" y2="266.1"/>
<line class="st8" x1="274.1" y1="236.9" x2="274.1" y2="265.4"/>
<line class="st8" x1="274.1" y1="275.5" x2="274.1" y2="304.1"/>
<line class="st8" x1="242.2" y1="275.7" x2="242.2" y2="304.3"/>
<line class="st8" x1="274.1" y1="313.7" x2="274.1" y2="342.2"/>
<line class="st8" x1="274.5" y1="351.7" x2="274.5" y2="380.3"/>
<line class="st8" x1="242.1" y1="313.7" x2="242.1" y2="342.2"/>
<line class="st8" x1="242.2" y1="351.7" x2="242.2" y2="380.3"/>
</svg>
