<?xml version="1.0" encoding="utf-8"?>
<!-- Generator: Adobe Illustrator 22.1.0, SVG Export Plug-In . SVG Version: 6.00 Build 0)  -->
<svg version="1.1" id="Layer_1" xmlns="http://www.w3.org/2000/svg" xmlns:xlink="http://www.w3.org/1999/xlink" x="0px" y="0px"
	 viewBox="0 0 108 108" style="enable-background:new 0 0 108 108;" xml:space="preserve">
<style type="text/css">
	.st0{fill:#F2E9DA;}
	.st1{opacity:0.65;}
	.st2{fill:#57BEAD;stroke:#000000;stroke-width:0.25;}
</style>
<rect x="0" class="st0" width="108" height="108"/>
<g class="st1">
	<path class="st2" d="M3,72.4L-8.9,60.5l3.9-3.9c1.5-1.5,2.5-2.4,3-2.7c0.9-0.5,1.8-0.7,2.9-0.5c1.1,0.1,2.1,0.7,3,1.6
		c0.7,0.7,1.2,1.5,1.4,2.2c0.2,0.8,0.3,1.5,0.2,2.2s-0.4,1.3-0.7,1.8c-0.5,0.7-1.2,1.6-2.3,2.7l-1.6,1.6L5.4,70L3,72.4z M-4.5,60.1
		l3.4,3.4l1.3-1.3c0.9-0.9,1.5-1.6,1.7-2.1s0.3-0.9,0.2-1.3c-0.1-0.4-0.3-0.8-0.7-1.2C1,57.1,0.5,56.9,0,56.8s-1,0.1-1.5,0.4
		c-0.3,0.2-0.9,0.8-1.8,1.7L-4.5,60.1z"/>
	<path class="st2" d="M16.8,58.6l-9.9-9.9l-3.5,3.5l-2-2l9.5-9.5l2,2l-3.5,3.5l9.9,9.9L16.8,58.6z"/>
</g>
<g class="st1">
	<path class="st2" d="M56,18.4L44.1,6.5L48,2.6c1.5-1.5,2.5-2.4,3-2.7c0.9-0.5,1.8-0.7,2.9-0.5s2.1,0.7,3,1.6
		c0.7,0.7,1.2,1.5,1.4,2.2s0.3,1.5,0.2,2.2s-0.4,1.3-0.7,1.8c-0.5,0.7-1.2,1.6-2.3,2.7l-1.6,1.6l4.5,4.5L56,18.4z M48.5,6.1l3.4,3.4
		l1.3-1.3c0.9-0.9,1.5-1.6,1.7-2.1s0.3-0.9,0.2-1.3c-0.1-0.4-0.3-0.8-0.7-1.2C54,3.1,53.5,2.9,53,2.8c-0.5,0-1,0.1-1.5,0.4
		c-0.3,0.2-0.9,0.8-1.8,1.7L48.5,6.1z"/>
	<path class="st2" d="M69.8,4.6l-9.9-9.9l-3.5,3.5l-2-2l9.5-9.5l2,2l-3.5,3.5l9.9,9.9L69.8,4.6z"/>
</g>
<g class="st1">
	<path class="st2" d="M56,126.4l-11.9-11.9l3.9-3.9c1.5-1.5,2.5-2.4,3-2.7c0.9-0.5,1.8-0.7,2.9-0.5c1.1,0.1,2.1,0.7,3,1.6
		c0.7,0.7,1.2,1.5,1.4,2.2c0.2,0.8,0.3,1.5,0.2,2.2c-0.1,0.7-0.4,1.3-0.7,1.8c-0.5,0.7-1.2,1.6-2.3,2.7l-1.6,1.6l4.5,4.5L56,126.4z
		 M48.5,114.1l3.4,3.4l1.3-1.3c0.9-0.9,1.5-1.6,1.7-2.1s0.3-0.9,0.2-1.3c-0.1-0.4-0.3-0.8-0.7-1.2c-0.4-0.4-0.9-0.7-1.5-0.7
		c-0.5,0-1,0.1-1.5,0.4c-0.3,0.2-0.9,0.8-1.8,1.7L48.5,114.1z"/>
	<path class="st2" d="M69.8,112.6l-9.9-9.9l-3.5,3.5l-2-2l9.5-9.5l2,2l-3.5,3.5l9.9,9.9L69.8,112.6z"/>
</g>
<g class="st1">
	<path class="st2" d="M111,72.4L99.1,60.5l3.9-3.9c1.5-1.5,2.5-2.4,3-2.7c0.9-0.5,1.8-0.7,2.9-0.5c1.1,0.1,2.1,0.7,3,1.6
		c0.7,0.7,1.2,1.5,1.4,2.2c0.2,0.8,0.3,1.5,0.2,2.2c-0.1,0.7-0.4,1.3-0.7,1.8c-0.5,0.7-1.2,1.6-2.3,2.7l-1.6,1.6l4.5,4.5L111,72.4z
		 M103.5,60.1l3.4,3.4l1.3-1.3c0.9-0.9,1.5-1.6,1.7-2.1s0.3-0.9,0.2-1.3c-0.1-0.4-0.3-0.8-0.7-1.2c-0.4-0.4-0.9-0.7-1.5-0.7
		c-0.5,0-1,0.1-1.5,0.4c-0.3,0.2-0.9,0.8-1.8,1.7L103.5,60.1z"/>
	<path class="st2" d="M124.8,58.6l-9.9-9.9l-3.5,3.5l-2-2l9.5-9.5l2,2l-3.5,3.5l9.9,9.9L124.8,58.6z"/>
</g>
</svg>
