<?xml version="1.0" encoding="utf-8"?>
<!-- Generator: Adobe Illustrator 22.1.0, SVG Export Plug-In . SVG Version: 6.00 Build 0)  -->
<svg version="1.1" id="Layer_1" xmlns="http://www.w3.org/2000/svg" xmlns:xlink="http://www.w3.org/1999/xlink" x="0px" y="0px"
	 viewBox="0 0 144 144" style="enable-background:new 0 0 144 144;" xml:space="preserve">
<style type="text/css">
	.st0{fill:#F2E9DA;}
	.st1{opacity:0.65;}
	.st2{fill:#57BEAD;stroke:#000000;stroke-width:0.25;}
	.st3{fill:#666666;}
</style>
<rect x="0" y="0" transform="matrix(4.486906e-11 -1 1 4.486906e-11 -3.230795e-09 144)" class="st0" width="144" height="144"/>
<g class="st1">
	<path class="st2" d="M1.8,90l-11.9-11.9l3.9-3.9c1.5-1.5,2.5-2.4,3-2.7c0.9-0.5,1.8-0.7,2.9-0.5c1.1,0.1,2.1,0.7,3,1.6
		c0.7,0.7,1.2,1.5,1.4,2.2c0.2,0.8,0.3,1.5,0.2,2.2c-0.1,0.7-0.4,1.3-0.7,1.8c-0.5,0.7-1.2,1.6-2.3,2.7l-1.6,1.6l4.5,4.5L1.8,90z
		 M-5.7,77.7l3.4,3.4l1.3-1.3c0.9-0.9,1.5-1.6,1.7-2.1s0.3-0.9,0.2-1.3c-0.1-0.4-0.3-0.8-0.7-1.2c-0.4-0.4-0.9-0.7-1.5-0.7
		s-1,0.1-1.5,0.4c-0.3,0.2-0.9,0.8-1.8,1.7L-5.7,77.7z"/>
	<path class="st2" d="M15.6,76.2l-9.9-9.9l-3.5,3.5l-2-2l9.5-9.5l2,2l-3.5,3.5l9.9,9.9L15.6,76.2z"/>
</g>
<g class="st1">
	<path class="st2" d="M74.9,18L63,6.1l3.9-3.9c1.5-1.5,2.5-2.4,3-2.7C70.8-1,71.7-1.2,72.8-1c1.1,0.1,2.1,0.7,3,1.6
		c0.7,0.7,1.2,1.5,1.4,2.2s0.3,1.5,0.2,2.2c-0.1,0.7-0.4,1.3-0.7,1.8c-0.5,0.7-1.2,1.6-2.3,2.7l-1.6,1.6l4.5,4.5L74.9,18z M67.4,5.7
		l3.4,3.4l1.3-1.3c0.9-0.9,1.5-1.6,1.7-2.1s0.3-0.9,0.2-1.3c-0.1-0.4-0.3-0.8-0.7-1.2c-0.4-0.4-0.9-0.7-1.5-0.7s-1,0.1-1.5,0.4
		c-0.3,0.2-0.9,0.8-1.8,1.7L67.4,5.7z"/>
	<path class="st2" d="M88.7,4.2l-9.9-9.9l-3.5,3.5l-2-2l9.5-9.5l2,2l-3.5,3.5l9.9,9.9L88.7,4.2z"/>
</g>
<g class="st1">
	<path class="st2" d="M74.9,162L63,150.1l3.9-3.9c1.5-1.5,2.5-2.4,3-2.7c0.9-0.5,1.8-0.7,2.9-0.5c1.1,0.1,2.1,0.7,3,1.6
		c0.7,0.7,1.2,1.5,1.4,2.2s0.3,1.5,0.2,2.2c-0.1,0.7-0.4,1.3-0.7,1.8c-0.5,0.7-1.2,1.6-2.3,2.7l-1.6,1.6l4.5,4.5L74.9,162z
		 M67.4,149.7l3.4,3.4l1.3-1.3c0.9-0.9,1.5-1.6,1.7-2.1s0.3-0.9,0.2-1.3c-0.1-0.4-0.3-0.8-0.7-1.2c-0.4-0.4-0.9-0.7-1.5-0.7
		s-1,0.1-1.5,0.4c-0.3,0.2-0.9,0.8-1.8,1.7L67.4,149.7z"/>
	<path class="st2" d="M88.7,148.2l-9.9-9.9l-3.5,3.5l-2-2l9.5-9.5l2,2l-3.5,3.5l9.9,9.9L88.7,148.2z"/>
</g>
<g class="st1">
	<path class="st2" d="M145.8,90l-11.9-11.9l3.9-3.9c1.5-1.5,2.5-2.4,3-2.7c0.9-0.5,1.8-0.7,2.9-0.5c1.1,0.1,2.1,0.7,3,1.6
		c0.7,0.7,1.2,1.5,1.4,2.2c0.2,0.8,0.3,1.5,0.2,2.2c-0.1,0.7-0.4,1.3-0.7,1.8c-0.5,0.7-1.2,1.6-2.3,2.7l-1.6,1.6l4.5,4.5L145.8,90z
		 M138.3,77.7l3.4,3.4l1.3-1.3c0.9-0.9,1.5-1.6,1.7-2.1c0.2-0.4,0.3-0.9,0.2-1.3c-0.1-0.4-0.3-0.8-0.7-1.2c-0.4-0.4-0.9-0.7-1.5-0.7
		s-1,0.1-1.5,0.4c-0.3,0.2-0.9,0.8-1.8,1.7L138.3,77.7z"/>
	<path class="st2" d="M159.6,76.2l-9.9-9.9l-3.5,3.5l-2-2l9.5-9.5l2,2l-3.5,3.5l9.9,9.9L159.6,76.2z"/>
</g>
<g>
	<path class="st3" d="M78,75.1l3.4-3.3L75.6,71L72,70.4c0,0,1.7-0.1,2.9-0.7l-2-4.1L70.3,71L69,74c0,0,0.3-1.6,0.1-2.8l-4.6,0.7
		l4.2,4.1l2.2,2.3c0,0-1.2-0.6-2.4-0.9l-0.8,4.4l5.2-2.7l3.3-1.7c0,0-1.4,1.3-2.2,2.3l4.1,2.1l-1-5.8l-0.6-3.7
		C76.6,72.3,77.2,74,78,75.1z"/>
	<path class="st0" d="M76.2,67.5c-0.4-1.8-0.6,0.2-0.6,1.8C76.1,68.9,76.4,68.3,76.2,67.5z"/>
	<path class="st0" d="M75.6,71c0,0,0-0.8,0.1-1.6c-0.2,0.2-0.4,0.3-0.7,0.4c-1.2,0.6-2.9,0.7-2.9,0.7L75.6,71z"/>
	<path class="st0" d="M78.7,75.8c0.2,0.1,0.4,0.2,0.6,0.1C79.8,75.7,79.3,75.7,78.7,75.8z"/>
	<path class="st0" d="M78,75.1c-0.8-1.1-1.5-2.8-1.5-2.8l0.6,3.7c0,0,0.8-0.1,1.5-0.1C78.5,75.6,78.3,75.4,78,75.1z"/>
	<path class="st0" d="M74.2,81.1c1,0.2,0.5-0.5-0.2-1.2C73.6,80.5,73.5,81,74.2,81.1z"/>
	<path class="st0" d="M76.3,77.3L72.9,79c0,0,0.5,0.4,1,0.9c0.1-0.1,0.1-0.2,0.2-0.3C74.9,78.6,76.3,77.3,76.3,77.3z"/>
	<path class="st0" d="M66.2,77.7c0.1,0.9,0.9,0.3,1.5-0.5C66.9,77,66.1,77.1,66.2,77.7z"/>
	<path class="st0" d="M68.7,75.9c0,0-0.5,0.6-1,1.2c0.2,0,0.5,0.1,0.7,0.2c1.2,0.4,2.4,0.9,2.4,0.9L68.7,75.9z"/>
	<path class="st0" d="M68.2,69.6c-0.8-0.2-0.1,0.2,0.6,0.6C68.7,69.9,68.5,69.7,68.2,69.6z"/>
	<path class="st0" d="M69,74l1.3-3c0,0-0.8-0.4-1.5-0.7c0.1,0.3,0.2,0.6,0.2,0.9C69.3,72.4,69,74,69,74z"/>
</g>
</svg>
