<?xml version="1.0" encoding="utf-8"?>
<!-- Generator: Adobe Illustrator 22.1.0, SVG Export Plug-In . SVG Version: 6.00 Build 0)  -->
<svg version="1.1" id="Layer_1" xmlns="http://www.w3.org/2000/svg" xmlns:xlink="http://www.w3.org/1999/xlink" x="0px" y="0px"
	 viewBox="0 0 108 108" style="enable-background:new 0 0 108 108;" xml:space="preserve">
<style type="text/css">
	.st0{fill:#F2E9DA;}
	.st1{opacity:0.75;}
	.st2{fill:#57BEAD;}
</style>
<rect x="0" class="st0" width="108" height="108"/>
<g class="st1">
	<path class="st2" d="M9.8,41.3c-0.1,0-0.2,0-0.3,0c-0.1,0.1-0.1,0.1-0.1,0.2c0.1,0.3,0,0.7-0.2,1.2C9,43.4,8.5,44,7.7,44.7
		c-0.3,0.2-0.6,0.5-0.9,0.8c-0.3,0.2-0.6,0.5-0.9,0.8c-0.3,0.3-0.7,0.6-1.1,0.9l-0.5-1.1C4.3,46,4.3,46,4.2,46c0,0-0.1,0-0.1,0.1
		l-1.6,1.6c-0.1,0.1-0.1,0.2,0,0.2l0.4,0.8c-0.5,0.4-0.8,0.8-1.1,1.1c-0.7-0.4-1.4-0.6-2.2-0.6c-1.1,0-2.2,0.3-3.2,0.8
		c-1,0.5-2,1.3-2.8,2.2s-1.5,2-2,3.1c-0.5,1.1-0.7,2.2-0.6,3.3c0,1.1,0.4,2.1,1.2,3c0.5,0.6,1,1.1,1.5,1.2S-5.3,63-4.9,63
		c0.4-0.1,0.8-0.2,1.2-0.5c0.5-0.4,0.7-0.7,0.8-1s0.1-0.6,0-0.9c-0.1-0.3-0.2-0.5-0.5-0.8c-0.1-0.1-0.1-0.1-0.2-0.1
		c-0.1-0.1-0.3-0.1-0.5-0.1c-0.1,0-0.1,0.1-0.1,0.1c0,0,0,0.1,0,0.1c0,0.2,0.1,0.3,0.1,0.5c0,0.2-0.1,0.3-0.3,0.5
		C-4.8,61-5.2,61-5.7,60.6c-0.5-0.3-0.8-1-1.1-2C-7,58-7,57.4-6.9,56.8c0.1-0.6,0.3-1.2,0.6-1.8c0.3-0.5,0.7-1.1,1.1-1.5
		c0.4-0.5,0.9-0.9,1.4-1.2c0.2-0.1,0.3-0.2,0.4-0.2c0.6-0.4,1.2-0.6,1.8-0.6c0.6-0.1,1.1,0,1.6,0.2c0.5,0.2,0.9,0.4,1.3,0.7
		S2,53,2.2,53.4c0.2,0.4,0.4,0.9,0.5,1.4c0.1,0.5,0,1.1-0.1,1.7c-0.1,0.6-0.3,1.1-0.5,1.7c-0.2,0.5-0.6,1-0.9,1.4L1,59.7
		c-0.4-0.7-0.7-1.5-1.1-2.3c-0.4-0.8-0.7-1.5-1-2.2s-0.6-1.3-0.9-1.8c-0.2-0.5-0.4-0.8-0.5-0.9c-0.1-0.1-0.1-0.1-0.2,0L-4.5,54
		c0,0.1,0,0.2,0,0.2c0.6,1.3,1.2,2.6,1.8,3.8c0.6,1.2,1.2,2.4,1.7,3.6c-0.3,0.2-0.6,0.5-0.8,0.7C-2,62.6-2.2,62.8-2.3,63
		c-0.4,0.6-0.6,1.1-0.5,1.6c0.1,0.4,0.3,0.7,0.6,0.9c0.2,0.1,0.4,0.2,0.6,0.2c0.2,0,0.4,0,0.5,0c0,0,0.1,0,0.1,0c0,0,0-0.1,0-0.1
		c-0.1-0.2-0.1-0.5-0.1-0.9c0-0.4,0.2-0.8,0.4-1.3c0.1-0.2,0.2-0.4,0.4-0.6l0.1,0.2l0.1,0.2l0.1,0c0,0,0,0.1,0,0.1
		c0.9,2.1,1.4,3.7,1.5,4.9c0.1,1.2,0,1.9-0.5,2.1c-0.2,0.1-0.3,0.1-0.3,0.1c-0.1,0-0.2,0.1-0.2,0.1c0,0.1,0,0.1,0,0.2
		c0,0.3,0.1,0.5,0.3,0.8c0.2,0.3,0.4,0.5,0.7,0.6c0.3,0.2,0.7,0.1,1.2-0.1c0,0,0.1,0,0.1-0.1l0,0c0.6-0.4,0.9-1,1.1-1.8
		c0.1-0.8,0.1-1.7-0.1-2.7c-0.2-1-0.5-2.1-0.9-3.2c-0.4-1.1-0.9-2.2-1.4-3.3c0.1-0.1,0.1-0.2,0.2-0.2c0.7-0.8,1.3-1.5,1.9-2.4
		c0.6-0.8,1-1.7,1.2-2.6c0.2-0.9,0.2-1.8-0.1-2.7c-0.2-0.7-0.7-1.5-1.4-2.3c0.1-0.2,0.3-0.4,0.5-0.6l3.4,7l0.1,0.3
		c0.2,0.3,0.3,0.6,0.5,0.9C7.8,58.8,8,59,8.3,59.3c0.2,0.3,0.5,0.5,0.8,0.6c0,0,0,0,0.1,0c0,0,0.1,0,0.1,0.1c0,0,0.1,0,0.2,0
		c0.2,0,0.4,0,0.5,0c0.1,0,0.2,0,0.3-0.1c0.1,0,0.2-0.1,0.2-0.1c0.1,0,0.1-0.1,0.2-0.2c0.3-0.2,0.5-0.6,0.7-0.9s0.3-0.8,0.3-1.2
		c0.1-0.4,0.1-0.9,0-1.3c0-0.5-0.1-0.9-0.1-1.3c-0.2-1-0.4-2.1-0.8-3.2L10.3,52c0.1,0.2,0.2,0.5,0.3,0.8c0.1,0.4,0.2,0.8,0.2,1.2
		c0.1,0.5,0.1,0.9,0.2,1.4c0,0.5,0.1,0.9,0.1,1.3c0,0.4-0.1,0.7-0.1,0.9c-0.1,0.2-0.2,0.4-0.4,0.4L10.3,58c0,0-0.1,0-0.1-0.1
		l-0.1-0.1c-0.1-0.1-0.1-0.1-0.2-0.2c0-0.1-0.1-0.1-0.1-0.2c0-0.1-0.1-0.1-0.1-0.2l-0.6-1.3l-3.5-7.3c0.5-0.4,0.9-0.8,1.3-1.2
		c0.4-0.4,0.8-0.7,1.1-0.9c1.5-1.4,2.3-2.6,2.6-3.8c0-0.1,0-0.1,0-0.2c0-0.1,0-0.2,0-0.3l0-0.2c0-0.1-0.1-0.2-0.1-0.3
		c0-0.1-0.1-0.1-0.2-0.2C10,41.4,9.9,41.3,9.8,41.3z"/>
</g>
<g class="st1">
	<path class="st2" d="M63.8,90.3c-0.1,0-0.2,0-0.3,0c-0.1,0.1-0.1,0.1-0.1,0.2c0.1,0.3,0,0.7-0.2,1.2c-0.2,0.5-0.7,1.1-1.5,1.9
		c-0.3,0.2-0.6,0.5-0.9,0.8c-0.3,0.2-0.6,0.5-0.9,0.8s-0.7,0.6-1.1,0.9l-0.5-1.1c0-0.1-0.1-0.1-0.1-0.1s-0.1,0-0.1,0.1l-1.6,1.6
		c-0.1,0.1-0.1,0.2,0,0.2l0.4,0.8c-0.5,0.4-0.8,0.8-1.1,1.1c-0.7-0.4-1.4-0.6-2.2-0.6c-1.1,0-2.2,0.3-3.2,0.8c-1,0.5-2,1.3-2.8,2.2
		c-0.9,0.9-1.5,2-2,3.1c-0.5,1.1-0.7,2.2-0.6,3.3c0,1.1,0.4,2.1,1.2,3c0.5,0.6,1,1.1,1.5,1.2s0.9,0.2,1.3,0.2
		c0.4-0.1,0.8-0.2,1.2-0.5c0.5-0.4,0.7-0.7,0.8-1c0.1-0.3,0.1-0.6,0-0.9c-0.1-0.3-0.2-0.5-0.5-0.8c-0.1-0.1-0.1-0.1-0.2-0.1
		c-0.1-0.1-0.3-0.1-0.5-0.1c-0.1,0-0.1,0.1-0.1,0.1c0,0,0,0.1,0,0.1c0,0.2,0.1,0.3,0.1,0.5c0,0.2-0.1,0.3-0.3,0.5
		c-0.3,0.2-0.7,0.2-1.2-0.2c-0.5-0.3-0.8-1-1.1-2c-0.2-0.6-0.2-1.3-0.1-1.9c0.1-0.6,0.3-1.2,0.6-1.8c0.3-0.5,0.7-1.1,1.1-1.5
		c0.4-0.5,0.9-0.9,1.4-1.2c0.2-0.1,0.3-0.2,0.4-0.2c0.6-0.4,1.2-0.6,1.8-0.6c0.6-0.1,1.1,0,1.6,0.2c0.5,0.2,0.9,0.4,1.3,0.7
		s0.7,0.7,0.9,1.1c0.2,0.4,0.4,0.9,0.5,1.4c0.1,0.5,0,1.1-0.1,1.7c-0.1,0.6-0.3,1.1-0.5,1.7c-0.2,0.5-0.6,1-0.9,1.4l-0.2,0.2
		c-0.4-0.7-0.7-1.5-1.1-2.3c-0.4-0.8-0.7-1.5-1-2.2c-0.3-0.7-0.6-1.3-0.9-1.8c-0.2-0.5-0.4-0.8-0.5-0.9c-0.1-0.1-0.1-0.1-0.2,0
		l-1.8,1.6c0,0.1,0,0.2,0,0.2c0.6,1.3,1.2,2.6,1.8,3.8c0.6,1.2,1.2,2.4,1.7,3.6c-0.3,0.2-0.6,0.5-0.8,0.7c-0.2,0.2-0.4,0.5-0.6,0.7
		c-0.4,0.6-0.6,1.1-0.5,1.6c0.1,0.4,0.3,0.7,0.6,0.9c0.2,0.1,0.4,0.2,0.6,0.2c0.2,0,0.4,0,0.5,0c0,0,0.1,0,0.1,0c0,0,0-0.1,0-0.1
		c-0.1-0.2-0.1-0.5-0.1-0.9c0-0.4,0.2-0.8,0.4-1.3c0.1-0.2,0.2-0.4,0.4-0.6l0.1,0.2l0.1,0.2l0.1,0c0,0,0,0.1,0,0.1
		c0.9,2.1,1.4,3.7,1.5,4.9c0.1,1.2,0,1.9-0.5,2.1c-0.2,0.1-0.3,0.1-0.3,0.1c-0.1,0-0.2,0.1-0.2,0.1c0,0.1,0,0.1,0,0.2
		c0,0.3,0.1,0.5,0.3,0.8c0.2,0.3,0.4,0.5,0.7,0.6c0.3,0.2,0.7,0.1,1.2-0.1c0,0,0.1,0,0.1-0.1l0,0c0.6-0.4,0.9-1,1.1-1.8
		c0.1-0.8,0.1-1.7-0.1-2.7c-0.2-1-0.5-2.1-0.9-3.2c-0.4-1.1-0.9-2.2-1.4-3.3c0.1-0.1,0.1-0.2,0.2-0.2c0.7-0.8,1.3-1.5,1.9-2.4
		c0.6-0.8,1-1.7,1.2-2.6c0.2-0.9,0.2-1.8-0.1-2.7c-0.2-0.7-0.7-1.5-1.4-2.3c0.1-0.2,0.3-0.4,0.5-0.6l3.4,7l0.1,0.3
		c0.2,0.3,0.3,0.6,0.5,0.9c0.2,0.2,0.4,0.5,0.6,0.8c0.2,0.3,0.5,0.5,0.8,0.6c0,0,0,0,0.1,0c0,0,0.1,0,0.1,0.1c0,0,0.1,0,0.2,0
		c0.2,0,0.4,0,0.5,0c0.1,0,0.2,0,0.3-0.1c0.1,0,0.2-0.1,0.2-0.1c0.1,0,0.1-0.1,0.2-0.2c0.3-0.2,0.5-0.6,0.7-0.9s0.3-0.8,0.3-1.2
		c0.1-0.4,0.1-0.9,0-1.3c0-0.5-0.1-0.9-0.1-1.3c-0.2-1-0.4-2.1-0.8-3.2l-0.4,0.4c0.1,0.2,0.2,0.5,0.3,0.8c0.1,0.4,0.2,0.8,0.2,1.2
		c0.1,0.5,0.1,0.9,0.2,1.4c0,0.5,0.1,0.9,0.1,1.3c0,0.4-0.1,0.7-0.1,0.9c-0.1,0.2-0.2,0.4-0.4,0.4l-0.2-0.1c0,0-0.1,0-0.1-0.1
		l-0.1-0.1c-0.1-0.1-0.1-0.1-0.2-0.2c0-0.1-0.1-0.1-0.1-0.2c0-0.1-0.1-0.1-0.1-0.2l-0.6-1.3l-3.5-7.3c0.5-0.4,0.9-0.8,1.3-1.2
		c0.4-0.4,0.8-0.7,1.1-0.9c1.5-1.4,2.3-2.6,2.6-3.8c0-0.1,0-0.1,0-0.2c0-0.1,0-0.2,0-0.3l0-0.2c0-0.1-0.1-0.2-0.1-0.3
		c0-0.1-0.1-0.1-0.2-0.2C64,90.4,63.9,90.3,63.8,90.3z"/>
</g>
<g class="st1">
	<path class="st2" d="M63.8-17.7c-0.1,0-0.2,0-0.3,0c-0.1,0.1-0.1,0.1-0.1,0.2c0.1,0.3,0,0.7-0.2,1.2c-0.2,0.5-0.7,1.1-1.5,1.9
		c-0.3,0.2-0.6,0.5-0.9,0.8c-0.3,0.2-0.6,0.5-0.9,0.8c-0.3,0.3-0.7,0.6-1.1,0.9l-0.5-1.1c0-0.1-0.1-0.1-0.1-0.1c0,0-0.1,0-0.1,0.1
		l-1.6,1.6c-0.1,0.1-0.1,0.2,0,0.2l0.4,0.8c-0.5,0.4-0.8,0.8-1.1,1.1c-0.7-0.4-1.4-0.6-2.2-0.6c-1.1,0-2.2,0.3-3.2,0.8
		c-1,0.5-2,1.3-2.8,2.2c-0.9,0.9-1.5,2-2,3.1c-0.5,1.1-0.7,2.2-0.6,3.3c0,1.1,0.4,2.1,1.2,3c0.5,0.6,1,1.1,1.5,1.2
		C48.3,4,48.7,4,49.1,4c0.4-0.1,0.8-0.2,1.2-0.5c0.5-0.4,0.7-0.7,0.8-1c0.1-0.3,0.1-0.6,0-0.9c-0.1-0.3-0.2-0.5-0.5-0.8
		c-0.1-0.1-0.1-0.1-0.2-0.1c-0.1-0.1-0.3-0.1-0.5-0.1c-0.1,0-0.1,0.1-0.1,0.1c0,0,0,0.1,0,0.1c0,0.2,0.1,0.3,0.1,0.5
		c0,0.2-0.1,0.3-0.3,0.5C49.2,2,48.8,2,48.3,1.6c-0.5-0.3-0.8-1-1.1-2C47-1,47-1.6,47.1-2.2c0.1-0.6,0.3-1.2,0.6-1.8
		C48-4.5,48.4-5,48.8-5.5c0.4-0.5,0.9-0.9,1.4-1.2c0.2-0.1,0.3-0.2,0.4-0.2c0.6-0.4,1.2-0.6,1.8-0.6c0.6-0.1,1.1,0,1.6,0.2
		c0.5,0.2,0.9,0.4,1.3,0.7S56-6,56.2-5.6c0.2,0.4,0.4,0.9,0.5,1.4c0.1,0.5,0,1.1-0.1,1.7c-0.1,0.6-0.3,1.1-0.5,1.7
		c-0.2,0.5-0.6,1-0.9,1.4L55,0.7c-0.4-0.7-0.7-1.5-1.1-2.3c-0.4-0.8-0.7-1.5-1-2.2c-0.3-0.7-0.6-1.3-0.9-1.8
		c-0.2-0.5-0.4-0.8-0.5-0.9c-0.1-0.1-0.1-0.1-0.2,0L49.5-5c0,0.1,0,0.2,0,0.2c0.6,1.3,1.2,2.6,1.8,3.8c0.6,1.2,1.2,2.4,1.7,3.6
		c-0.3,0.2-0.6,0.5-0.8,0.7C52,3.6,51.8,3.8,51.7,4c-0.4,0.6-0.6,1.1-0.5,1.6c0.1,0.4,0.3,0.7,0.6,0.9c0.2,0.1,0.4,0.2,0.6,0.2
		c0.2,0,0.4,0,0.5,0c0,0,0.1,0,0.1,0c0,0,0-0.1,0-0.1c-0.1-0.2-0.1-0.5-0.1-0.9c0-0.4,0.2-0.8,0.4-1.3c0.1-0.2,0.2-0.4,0.4-0.6
		l0.1,0.2l0.1,0.2l0.1,0c0,0,0,0.1,0,0.1c0.9,2.1,1.4,3.7,1.5,4.9c0.1,1.2,0,1.9-0.5,2.1c-0.2,0.1-0.3,0.1-0.3,0.1
		c-0.1,0-0.2,0.1-0.2,0.1s0,0.1,0,0.2c0,0.3,0.1,0.5,0.3,0.8c0.2,0.3,0.4,0.5,0.7,0.6c0.3,0.2,0.7,0.1,1.2-0.1c0,0,0.1,0,0.1-0.1
		l0,0c0.6-0.4,0.9-1,1.1-1.8c0.1-0.8,0.1-1.7-0.1-2.7c-0.2-1-0.5-2.1-0.9-3.2c-0.4-1.1-0.9-2.2-1.4-3.3c0.1-0.1,0.1-0.2,0.2-0.2
		c0.7-0.8,1.3-1.5,1.9-2.4c0.6-0.8,1-1.7,1.2-2.6c0.2-0.9,0.2-1.8-0.1-2.7c-0.2-0.7-0.7-1.5-1.4-2.3c0.1-0.2,0.3-0.4,0.5-0.6l3.4,7
		l0.1,0.3c0.2,0.3,0.3,0.6,0.5,0.9C61.8-0.2,62,0,62.3,0.3c0.2,0.3,0.5,0.5,0.8,0.6c0,0,0,0,0.1,0c0,0,0.1,0,0.1,0.1
		c0,0,0.1,0,0.2,0c0.2,0,0.4,0,0.5,0c0.1,0,0.2,0,0.3-0.1c0.1,0,0.2-0.1,0.2-0.1c0.1,0,0.1-0.1,0.2-0.2c0.3-0.2,0.5-0.6,0.7-0.9
		s0.3-0.8,0.3-1.2c0.1-0.4,0.1-0.9,0-1.3c0-0.5-0.1-0.9-0.1-1.3c-0.2-1-0.4-2.1-0.8-3.2L64.3-7c0.1,0.2,0.2,0.5,0.3,0.8
		c0.1,0.4,0.2,0.8,0.2,1.2C64.9-4.5,64.9-4,65-3.5C65-3,65-2.6,65-2.2c0,0.4-0.1,0.7-0.1,0.9c-0.1,0.2-0.2,0.4-0.4,0.4L64.3-1
		c0,0-0.1,0-0.1-0.1l-0.1-0.1C64.1-1.2,64-1.3,64-1.4c0-0.1-0.1-0.1-0.1-0.2c0-0.1-0.1-0.1-0.1-0.2l-0.6-1.3l-3.5-7.3
		c0.5-0.4,0.9-0.8,1.3-1.2c0.4-0.4,0.8-0.7,1.1-0.9c1.5-1.4,2.3-2.6,2.6-3.8c0-0.1,0-0.1,0-0.2c0-0.1,0-0.2,0-0.3l0-0.2
		c0-0.1-0.1-0.2-0.1-0.3c0-0.1-0.1-0.1-0.2-0.2C64-17.6,63.9-17.7,63.8-17.7z"/>
</g>
<g class="st1">
	<path class="st2" d="M117.8,41.3c-0.1,0-0.2,0-0.3,0c-0.1,0.1-0.1,0.1-0.1,0.2c0.1,0.3,0,0.7-0.2,1.2c-0.2,0.5-0.7,1.1-1.5,1.9
		c-0.3,0.2-0.6,0.5-0.9,0.8c-0.3,0.2-0.6,0.5-0.9,0.8c-0.3,0.3-0.7,0.6-1.1,0.9l-0.5-1.1c0-0.1-0.1-0.1-0.1-0.1s-0.1,0-0.1,0.1
		l-1.6,1.6c-0.1,0.1-0.1,0.2,0,0.2l0.4,0.8c-0.5,0.4-0.8,0.8-1.1,1.1c-0.7-0.4-1.4-0.6-2.2-0.6c-1.1,0-2.2,0.3-3.2,0.8
		c-1,0.5-2,1.3-2.8,2.2s-1.5,2-2,3.1c-0.5,1.1-0.7,2.2-0.6,3.3c0,1.1,0.4,2.1,1.2,3c0.5,0.6,1,1.1,1.5,1.2c0.5,0.2,0.9,0.2,1.3,0.2
		c0.4-0.1,0.8-0.2,1.2-0.5c0.5-0.4,0.7-0.7,0.8-1c0.1-0.3,0.1-0.6,0-0.9c-0.1-0.3-0.2-0.5-0.5-0.8c-0.1-0.1-0.1-0.1-0.2-0.1
		c-0.1-0.1-0.3-0.1-0.5-0.1c-0.1,0-0.1,0.1-0.1,0.1c0,0,0,0.1,0,0.1c0,0.2,0.1,0.3,0.1,0.5c0,0.2-0.1,0.3-0.3,0.5
		c-0.3,0.2-0.7,0.2-1.2-0.2c-0.5-0.3-0.8-1-1.1-2c-0.2-0.6-0.2-1.3-0.1-1.9c0.1-0.6,0.3-1.2,0.6-1.8c0.3-0.5,0.7-1.1,1.1-1.5
		c0.4-0.5,0.9-0.9,1.4-1.2c0.2-0.1,0.3-0.2,0.4-0.2c0.6-0.4,1.2-0.6,1.8-0.6c0.6-0.1,1.1,0,1.6,0.2c0.5,0.2,0.9,0.4,1.3,0.7
		s0.7,0.7,0.9,1.1c0.2,0.4,0.4,0.9,0.5,1.4c0.1,0.5,0,1.1-0.1,1.7c-0.1,0.6-0.3,1.1-0.5,1.7c-0.2,0.5-0.6,1-0.9,1.4l-0.2,0.2
		c-0.4-0.7-0.7-1.5-1.1-2.3c-0.4-0.8-0.7-1.5-1-2.2s-0.6-1.3-0.9-1.8c-0.2-0.5-0.4-0.8-0.5-0.9c-0.1-0.1-0.1-0.1-0.2,0l-1.8,1.6
		c0,0.1,0,0.2,0,0.2c0.6,1.3,1.2,2.6,1.8,3.8c0.6,1.2,1.2,2.4,1.7,3.6c-0.3,0.2-0.6,0.5-0.8,0.7c-0.2,0.2-0.4,0.5-0.6,0.7
		c-0.4,0.6-0.6,1.1-0.5,1.6c0.1,0.4,0.3,0.7,0.6,0.9c0.2,0.1,0.4,0.2,0.6,0.2c0.2,0,0.4,0,0.5,0c0,0,0.1,0,0.1,0c0,0,0-0.1,0-0.1
		c-0.1-0.2-0.1-0.5-0.1-0.9c0-0.4,0.2-0.8,0.4-1.3c0.1-0.2,0.2-0.4,0.4-0.6l0.1,0.2l0.1,0.2l0.1,0c0,0,0,0.1,0,0.1
		c0.9,2.1,1.4,3.7,1.5,4.9c0.1,1.2,0,1.9-0.5,2.1c-0.2,0.1-0.3,0.1-0.3,0.1c-0.1,0-0.2,0.1-0.2,0.1c0,0.1,0,0.1,0,0.2
		c0,0.3,0.1,0.5,0.3,0.8c0.2,0.3,0.4,0.5,0.7,0.6c0.3,0.2,0.7,0.1,1.2-0.1c0,0,0.1,0,0.1-0.1l0,0c0.6-0.4,0.9-1,1.1-1.8
		c0.1-0.8,0.1-1.7-0.1-2.7c-0.2-1-0.5-2.1-0.9-3.2c-0.4-1.1-0.9-2.2-1.4-3.3c0.1-0.1,0.1-0.2,0.2-0.2c0.7-0.8,1.3-1.5,1.9-2.4
		c0.6-0.8,1-1.7,1.2-2.6c0.2-0.9,0.2-1.8-0.1-2.7c-0.2-0.7-0.7-1.5-1.4-2.3c0.1-0.2,0.3-0.4,0.5-0.6l3.4,7l0.1,0.3
		c0.2,0.3,0.3,0.6,0.5,0.9c0.2,0.2,0.4,0.5,0.6,0.8c0.2,0.3,0.5,0.5,0.8,0.6c0,0,0,0,0.1,0c0,0,0.1,0,0.1,0.1c0,0,0.1,0,0.2,0
		c0.2,0,0.4,0,0.5,0c0.1,0,0.2,0,0.3-0.1c0.1,0,0.2-0.1,0.2-0.1c0.1,0,0.1-0.1,0.2-0.2c0.3-0.2,0.5-0.6,0.7-0.9s0.3-0.8,0.3-1.2
		c0.1-0.4,0.1-0.9,0-1.3c0-0.5-0.1-0.9-0.1-1.3c-0.2-1-0.4-2.1-0.8-3.2l-0.4,0.4c0.1,0.2,0.2,0.5,0.3,0.8c0.1,0.4,0.2,0.8,0.2,1.2
		c0.1,0.5,0.1,0.9,0.2,1.4c0,0.5,0.1,0.9,0.1,1.3c0,0.4-0.1,0.7-0.1,0.9c-0.1,0.2-0.2,0.4-0.4,0.4l-0.2-0.1c0,0-0.1,0-0.1-0.1
		l-0.1-0.1c-0.1-0.1-0.1-0.1-0.2-0.2c0-0.1-0.1-0.1-0.1-0.2c0-0.1-0.1-0.1-0.1-0.2l-0.6-1.3l-3.5-7.3c0.5-0.4,0.9-0.8,1.3-1.2
		c0.4-0.4,0.8-0.7,1.1-0.9c1.5-1.4,2.3-2.6,2.6-3.8c0-0.1,0-0.1,0-0.2c0-0.1,0-0.2,0-0.3l0-0.2c0-0.1-0.1-0.2-0.1-0.3
		c0-0.1-0.1-0.1-0.2-0.2C118,41.4,117.9,41.3,117.8,41.3z"/>
</g>
</svg>
