<?xml version="1.0" encoding="utf-8"?>
<!-- Generator: Adobe Illustrator 22.1.0, SVG Export Plug-In . SVG Version: 6.00 Build 0)  -->
<svg version="1.1" id="Layer_1" xmlns="http://www.w3.org/2000/svg" xmlns:xlink="http://www.w3.org/1999/xlink" x="0px" y="0px"
	 viewBox="0 0 108 108" style="enable-background:new 0 0 108 108;" xml:space="preserve">
<style type="text/css">
	.st0{fill:none;}
	.st1{fill:#F2E9DA;}
	.st2{fill:#57BEAD;}
	.st3{fill:url(#New_Pattern_Swatch_7);}
</style>
<pattern  width="108" height="108" patternUnits="userSpaceOnUse" id="New_Pattern_Swatch_7" viewBox="13.2 -124 108 108" style="overflow:visible;">
	<g>
		<rect x="13.2" y="-124" class="st0" width="108" height="108"/>
		<rect x="13.2" y="-124" class="st1" width="108" height="108"/>
		<g>
			<g>
				<path class="st2" d="M15.9-54.7l-5-5l1.7-1.7c1.2-1.2,2.1-2.2,2.6-3c0.4-0.6,0.6-1.2,0.8-2c0.1-0.8,0.1-1.6-0.2-2.4
					c-0.3-0.8-0.8-1.7-1.6-2.5c-1.1-1.1-2.2-1.7-3.3-1.8c-1.2-0.2-2.2,0-3.2,0.6c-0.6,0.4-1.7,1.4-3.4,3L0-65.2L13.2-52L15.9-54.7z
					 M6.2-66.9c1-1,1.6-1.6,2-1.8c0.5-0.4,1.1-0.5,1.7-0.5c0.6,0,1.1,0.3,1.6,0.8c0.4,0.4,0.6,0.8,0.7,1.3c0.1,0.5,0,1-0.2,1.5
					c-0.2,0.5-0.8,1.3-1.9,2.3l-1.5,1.5l-3.7-3.7L6.2-66.9z"/>
				<path class="st2" d="M31.1-69.9l-11-11l3.9-3.9L21.8-87L11.4-76.5l2.2,2.2l3.9-3.9l11,11L31.1-69.9z"/>
			</g>
			<g>
				<path class="st2" d="M123.9-54.7l-5-5l1.7-1.7c1.2-1.2,2.1-2.2,2.6-3c0.4-0.6,0.6-1.2,0.8-2c0.1-0.8,0.1-1.6-0.2-2.4
					c-0.3-0.8-0.8-1.7-1.6-2.5c-1.1-1.1-2.2-1.7-3.3-1.8c-1.2-0.2-2.2,0-3.2,0.6c-0.6,0.4-1.7,1.4-3.4,3l-4.3,4.3L121.2-52
					L123.9-54.7z M114.2-66.9c1-1,1.6-1.6,2-1.8c0.5-0.4,1.1-0.5,1.7-0.5c0.6,0,1.1,0.3,1.6,0.8c0.4,0.4,0.6,0.8,0.7,1.3
					s0,1-0.2,1.5c-0.2,0.5-0.8,1.3-1.9,2.3l-1.5,1.5l-3.7-3.7L114.2-66.9z"/>
				<path class="st2" d="M139.1-69.9l-11-11l3.9-3.9l-2.2-2.2l-10.5,10.5l2.2,2.2l3.9-3.9l11,11L139.1-69.9z"/>
			</g>
			<g>
				<path class="st2" d="M64.9-110.7l-5-5l1.7-1.7c1.2-1.2,2.1-2.2,2.6-3c0.4-0.6,0.6-1.2,0.8-2c0.1-0.8,0.1-1.6-0.2-2.4
					c-0.3-0.8-0.8-1.7-1.6-2.5c-1.1-1.1-2.2-1.7-3.3-1.8c-1.2-0.2-2.2,0-3.2,0.6c-0.6,0.4-1.7,1.4-3.4,3l-4.3,4.3L62.2-108
					L64.9-110.7z M55.2-122.9c1-1,1.6-1.6,2-1.8c0.5-0.4,1.1-0.5,1.7-0.5c0.6,0,1.1,0.3,1.6,0.8c0.4,0.4,0.6,0.8,0.7,1.3
					c0.1,0.5,0,1-0.2,1.5c-0.2,0.5-0.8,1.3-1.9,2.3l-1.5,1.5l-3.7-3.7L55.2-122.9z"/>
				<path class="st2" d="M80.1-125.9l-11-11l3.9-3.9l-2.2-2.2l-10.5,10.5l2.2,2.2l3.9-3.9l11,11L80.1-125.9z"/>
			</g>
			<g>
				<path class="st2" d="M64.9-2.7l-5-5l1.7-1.7c1.2-1.2,2.1-2.2,2.6-3c0.4-0.6,0.6-1.2,0.8-2c0.1-0.8,0.1-1.6-0.2-2.4
					c-0.3-0.8-0.8-1.7-1.6-2.5c-1.1-1.1-2.2-1.7-3.3-1.8c-1.2-0.2-2.2,0-3.2,0.6c-0.6,0.4-1.7,1.4-3.4,3L49-13.2L62.2,0L64.9-2.7z
					 M55.2-14.9c1-1,1.6-1.6,2-1.8c0.5-0.4,1.1-0.5,1.7-0.5c0.6,0,1.1,0.3,1.6,0.8c0.4,0.4,0.6,0.8,0.7,1.3c0.1,0.5,0,1-0.2,1.5
					c-0.2,0.5-0.8,1.3-1.9,2.3l-1.5,1.5l-3.7-3.7L55.2-14.9z"/>
				<path class="st2" d="M80.1-17.9l-11-11l3.9-3.9L70.8-35L60.4-24.5l2.2,2.2l3.9-3.9l11,11L80.1-17.9z"/>
			</g>
		</g>
	</g>
</pattern>
<rect x="0" class="st3" width="108" height="108"/>
<rect x="0" class="st3" width="108" height="108"/>
<g>
	<g>
		<path class="st3" d="M0,72l-13.2-13.2l4.3-4.3c1.6-1.6,2.7-2.6,3.4-3c1-0.6,2-0.8,3.2-0.6c1.2,0.2,2.3,0.8,3.3,1.8
			c0.8,0.8,1.3,1.6,1.6,2.5c0.3,0.8,0.3,1.7,0.2,2.4c-0.1,0.8-0.4,1.4-0.8,2c-0.5,0.8-1.4,1.7-2.6,3l-1.7,1.7l5,5L0,72z M-8.3,58.4
			l3.7,3.7l1.5-1.5c1.1-1.1,1.7-1.8,1.9-2.3c0.2-0.5,0.3-1,0.2-1.5s-0.3-0.9-0.7-1.3c-0.5-0.5-1-0.7-1.6-0.8c-0.6,0-1.1,0.1-1.7,0.5
			c-0.4,0.3-1,0.9-2,1.8L-8.3,58.4z"/>
		<path class="st3" d="M15.3,56.7l-11-11l-3.9,3.9l-2.2-2.2L8.7,37l2.2,2.2L7,43.1l11,11L15.3,56.7z"/>
	</g>
	<g>
		<path class="st3" d="M108,72L94.8,58.8l4.3-4.3c1.6-1.6,2.7-2.6,3.4-3c1-0.6,2-0.8,3.2-0.6c1.2,0.2,2.3,0.8,3.3,1.8
			c0.8,0.8,1.3,1.6,1.6,2.5c0.3,0.8,0.3,1.7,0.2,2.4c-0.1,0.8-0.4,1.4-0.8,2c-0.5,0.8-1.4,1.7-2.6,3l-1.7,1.7l5,5L108,72z
			 M99.7,58.4l3.7,3.7l1.5-1.5c1.1-1.1,1.7-1.8,1.9-2.3c0.2-0.5,0.3-1,0.2-1.5s-0.3-0.9-0.7-1.3c-0.5-0.5-1-0.7-1.6-0.8
			c-0.6,0-1.1,0.1-1.7,0.5c-0.4,0.3-1,0.9-2,1.8L99.7,58.4z"/>
		<path class="st3" d="M123.3,56.7l-11-11l-3.9,3.9l-2.2-2.2L116.7,37l2.2,2.2l-3.9,3.9l11,11L123.3,56.7z"/>
	</g>
	<g>
		<path class="st3" d="M49,16L35.8,2.8l4.3-4.3c1.6-1.6,2.7-2.6,3.4-3c1-0.6,2-0.8,3.2-0.6c1.2,0.2,2.3,0.8,3.3,1.8
			c0.8,0.8,1.3,1.6,1.6,2.5c0.3,0.8,0.3,1.7,0.2,2.4c-0.1,0.8-0.4,1.4-0.8,2c-0.5,0.8-1.4,1.7-2.6,3l-1.7,1.7l5,5L49,16z M40.7,2.4
			l3.7,3.7l1.5-1.5c1.1-1.1,1.7-1.8,1.9-2.3c0.2-0.5,0.3-1,0.2-1.5c-0.1-0.5-0.3-0.9-0.7-1.3c-0.5-0.5-1-0.7-1.6-0.8
			c-0.6,0-1.1,0.1-1.7,0.5c-0.4,0.3-1,0.9-2,1.8L40.7,2.4z"/>
		<path class="st3" d="M64.3,0.7l-11-11l-3.9,3.9l-2.2-2.2L57.7-19l2.2,2.2L56-12.9l11,11L64.3,0.7z"/>
	</g>
	<g>
		<path class="st3" d="M49,124l-13.2-13.2l4.3-4.3c1.6-1.6,2.7-2.6,3.4-3c1-0.6,2-0.8,3.2-0.6c1.2,0.2,2.3,0.8,3.3,1.8
			c0.8,0.8,1.3,1.6,1.6,2.5c0.3,0.8,0.3,1.7,0.2,2.4c-0.1,0.8-0.4,1.4-0.8,2c-0.5,0.8-1.4,1.7-2.6,3l-1.7,1.7l5,5L49,124z
			 M40.7,110.4l3.7,3.7l1.5-1.5c1.1-1.1,1.7-1.8,1.9-2.3c0.2-0.5,0.3-1,0.2-1.5c-0.1-0.5-0.3-0.9-0.7-1.3c-0.5-0.5-1-0.7-1.6-0.8
			c-0.6,0-1.1,0.1-1.7,0.5c-0.4,0.3-1,0.9-2,1.8L40.7,110.4z"/>
		<path class="st3" d="M64.3,108.7l-11-11l-3.9,3.9l-2.2-2.2L57.7,89l2.2,2.2L56,95.1l11,11L64.3,108.7z"/>
	</g>
</g>
</svg>
